<?xml version="1.0" encoding="UTF-8"?>
<svg version="1.1" viewBox="0 0 441.57 414.06" xmlns="http://www.w3.org/2000/svg">
<g transform="translate(-.53824 -2.8375)">
<g transform="matrix(1.5441 0 0 1.5441 -172.59 -437.47)">
<path d="m396.83 286.66c-1.66-1.9867-4.672-1.912-6.5933-0.31867-1.9213 1.5933-2.7587 3.4027-2.9987 6.088-0.59067-2.6307-1.8133-4.304-3.9427-5.6307-2.128-1.328-5.1467-1.0067-6.544 1.1813-0.82 1.2813-0.98267 2.996-0.67333 4.5493 0.308 1.5533 0.85866 3.1507 1.8947 4.2533 3.6893 3.9307 5.6 4.5467 10.179 7.2093 4.1587-3.236 5.5067-4.0653 8.624-8.444 0.876-1.2293 1.2093-2.884 1.3107-4.464 0.10133-1.5813-0.28134-3.2587-1.256-4.424" fill="#dadbd8"/>
<path d="m357.25 368.35-47.077 7.9347c-17.621-15.197-40.551-24.408-65.645-24.408-55.558 0-100.6 45.04-100.6 100.6 0 55.557 45.038 100.59 100.6 100.59 55.556 0 100.59-45.037 100.59-100.59 0-15.564-3.5373-30.298-9.8467-43.452l21.975-40.672" fill="#dadbd8"/>
<path d="m150.94 346.86c0 1.444 1.1697 2.6147 2.6129 2.6147s2.6136-1.1707 2.6136-2.6147c0-1.4427-1.1704-2.6133-2.6136-2.6133s-2.6129 1.1707-2.6129 2.6133" fill="#000"/>
<path d="m140.48 346.86c0 1.444 1.1704 2.6147 2.6136 2.6147 1.4443 0 2.614-1.1707 2.614-2.6147 0-1.4427-1.1697-2.6133-2.614-2.6133-1.4432 0-2.6136 1.1707-2.6136 2.6133" fill="#000"/>
<path d="m130.04 345.56c-0.72186 1.2507-0.29373 2.848 0.95627 3.5707 1.25 0.72133 2.8484 0.29333 3.5703-0.95734 0.72133-1.2493 0.29266-2.8493-0.95734-3.5707-1.25-0.72134-2.8479-0.292-3.5692 0.95733" fill="#000"/>
<path d="m142.93 316.34c0 0.012-0.1792 0.0333-0.52706 0.0627-0.38187 0.028-0.8932 0.0653-1.5453 0.112-0.33853 0.0267-0.71933 0.0373-1.136 0.084-0.41613 0.068-0.86813 0.144-1.3567 0.224-0.49173 0.0813-1.0199 0.16667-1.5824 0.26-0.55307 0.14667-1.1411 0.304-1.7635 0.46933-2.476 0.68-5.4683 1.808-8.5161 3.84-3.0469 1.9987-6.2037 4.836-8.7557 8.6653-2.5037 3.836-4.4224 8.6413-4.9136 14.023-0.0427 1.348-0.2016 2.7173-0.0651 4.108 0.0521 0.69334 0.0396 1.4 0.14373 2.0987 0.1084 0.69867 0.21774 1.404 0.32707 2.1133 0.58387 2.8013 1.4251 5.668 2.8765 8.3347 1.4183 2.6747 3.2417 5.2173 5.4652 7.4813 2.2676 2.2173 4.912 4.14 7.852 5.62 2.9319 1.4933 6.1771 2.524 9.5563 2.9227 0.83653 0.16666 1.6932 0.164 2.548 0.216 0.8552 0.0547 1.7135 0.0867 2.5755 0.0453 1.7235-0.0707 3.4516-0.28667 5.1583-0.652 3.7089-0.78933 7.2011-2.2987 10.271-4.3187l0.15147-0.0987 0.1672 0.0667c3.6401 1.4667 7.2104 2.904 10.696 4.3067l-0.45267 0.404c-1.0719-3.928-2.114-7.7493-3.1224-11.447l-0.0421-0.15466 0.0964-0.128c2.95-3.9013 4.8385-8.356 5.6323-12.788 0.39733-2.2133 0.57186-4.4253 0.43333-6.564-0.0412-1.0733-0.0865-2.1307-0.28387-3.16-0.0765-0.51467-0.15413-1.028-0.23066-1.5373-0.0907-0.50667-0.2428-0.996-0.36-1.4893-1.988-7.916-6.8224-13.807-11.638-17.212-4.8235-3.5267-9.5448-4.7827-12.694-5.36-0.80106-0.11866-1.5047-0.27466-2.1235-0.32266-0.60827-0.04-1.1287-0.076-1.5615-0.10534-0.39627-0.0307-0.712-0.056-0.95667-0.076-0.21466-0.0187-0.324-0.0347-0.324-0.044 0-9e-3 0.10934-0.0133 0.32494-0.012 0.24533 5e-3 0.56146 0.0133 0.9604 0.0213 0.436 0.016 0.95946 0.032 1.572 0.0533 0.6228 0.0307 1.3337 0.17067 2.1432 0.27333 0.40306 0.0627 0.83333 0.108 1.2792 0.19467 0.44213 0.10933 0.9052 0.224 1.39 0.34267 0.48546 0.124 0.99173 0.25333 1.5193 0.38533 0.51347 0.18533 1.0463 0.376 1.6 0.57333 2.2213 0.77467 4.6459 2.0173 7.1057 3.7493 4.9115 3.4027 9.8708 9.3507 11.939 17.404 0.12186 0.50133 0.27813 1 0.374 1.5147 0.0801 0.51867 0.16133 1.04 0.2432 1.5653 0.20466 1.0467 0.2572 2.1253 0.30306 3.2173 0.15054 2.18-0.0183 4.436-0.4156 6.696-0.7932 4.5253-2.7079 9.0827-5.7104 13.073l0.0541-0.28267c1.0156 3.6947 2.0656 7.5133 3.1459 11.44l0.18014 0.65867-0.63334-0.25467c-3.4869-1.4-7.0593-2.8333-10.7-4.296l0.31814-0.032c-3.1375 2.068-6.7104 3.6133-10.505 4.4213-1.7468 0.37466-3.514 0.596-5.2765 0.66533-0.88226 0.0427-1.7604 0.0107-2.6349-0.0467-0.87347-0.0533-1.75-0.052-2.6063-0.22266-3.4557-0.41067-6.7749-1.4667-9.7713-2.9987-3.0047-1.5173-5.7041-3.488-8.0156-5.7587-2.2677-2.3173-4.1245-4.9213-5.5645-7.656-1.4729-2.728-2.3251-5.6573-2.9089-8.5187-0.10934-0.724-0.2172-1.4427-0.3244-2.156-0.10374-0.71333-0.0896-1.4333-0.13907-2.1413-0.13227-1.4187 0.0333-2.8133 0.0848-4.1853 0.52453-5.4827 2.5084-10.364 5.0787-14.243 2.6199-3.8747 5.848-6.7267 8.9532-8.72 3.1077-2.0253 6.1484-3.1293 8.6567-3.7747 0.63027-0.156 1.2256-0.304 1.7865-0.44267 0.5688-0.0827 1.1016-0.15733 1.5984-0.22933 0.4928-0.0693 0.95-0.13333 1.3699-0.192 0.41973-0.036 0.80413-0.036 1.1452-0.052 0.6548-0.0173 1.1693-0.032 1.5527-0.044 0.34946-5e-3 0.52866-3e-3 0.52866 9e-3" fill="#000"/>
<path d="m255.53 297.86c2.436-5.4333 8.132-9.2533 14.096-9.452s11.904 3.232 14.699 8.4907c1.6627 3.1293 2.32 6.8587 4.724 9.4653 2.9973 3.2493 8.5173 3.7667 12.068 1.128 0.97334 3.7973-1.38 8.1427-5.0973 9.4133 1.9653 0.20134 3.932 0.404 5.896 0.60534-3.1813 6.9413-11.892 10.121-19.424 8.7653-7.5307-1.3547-13.931-6.3373-19.056-12.005" fill="#000"/>
<path d="m255.58 297.95 18.188 5.956c6.396 4.2307 11.495 10.435 14.007 17.677 0.85067 2.4533 1.4307 5.0067 2.5067 7.372 1.076 2.364 2.7467 4.5893 5.1213 5.6507 1.748 0.78134 3.7293 0.872 5.5253 1.5347 3.036 1.1173 5.336 3.8987 6.104 7.036 0.768 3.136 0.0707 6.5493-1.6493 9.284-0.86266 1.3693-2.0107 2.6973-2.0853 4.3133-0.0507 1.0947 0.408 2.1373 0.664 3.2013 0.86933 3.6133-0.856 7.6947-4.0587 9.5973-3.2 1.9013-7.6213 1.468-10.392-1.016-1.164 2.6707-2.7107 5.4213-5.3453 6.6773-2.6333 1.2547-6.5227 0.12667-7.0707-2.7333-1.3107 2.744-4.5853 4.4013-7.5813 3.8333-2.9933-0.56667-5.432-3.3053-5.6427-6.3387l-49.847-54.371c7.44-19.891 36.533-18.133 41.556-17.675" fill="#000"/>
<path d="m264.02 316.87c3.2093 0.33867 5.624 3.0693 5.56 6.2853l-3.5213 83.719c-0.13334 9.8867-18.119 21.576-28.731 21.352-10.717-0.2256-7.5653-11.569-7.7213-20.973-0.25867-15.713-0.25334-21.612-0.25867-21.523 0 0-13.541-2.2427-16.348-19.865-1.3947-8.7653-0.95333-23.133-0.21067-34.879 0.668-10.573 7.6907-23.545 18.252-22.431l32.979 8.3147" fill="#f8a58d"/>
<path d="m217.38 342.39c-0.0427 1.1933 0.936 2.212 2.1853 2.28 1.2467 0.0667 2.2933-0.844 2.336-2.0373 0.0413-1.1947-0.93733-2.2147-2.1827-2.2813-1.2493-0.068-2.296 0.84534-2.3387 2.0387" fill="#000"/>
<path d="m215.91 338.46c0.28134 0.29467 1.9987-0.97333 4.436-0.96667 2.436-0.028 4.2253 1.2227 4.4907 0.92534 0.12933-0.132-0.15733-0.66267-0.936-1.2293-0.76667-0.564-2.0747-1.112-3.5933-1.1053-1.5187 8e-3 -2.7973 0.56667-3.5307 1.136-0.75067 0.57467-1.004 1.1067-0.86667 1.24" fill="#000"/>
<path d="m241.21 342.39c-0.0427 1.1933 0.93733 2.212 2.1853 2.28 1.2467 0.0667 2.2933-0.844 2.3347-2.0373 0.0427-1.1947-0.936-2.2147-2.1827-2.2813-1.248-0.068-2.2947 0.84534-2.3373 2.0387" fill="#000"/>
<path d="m239.88 338.91c0.28134 0.29467 2-0.972 4.4373-0.96533 2.436-0.028 4.2253 1.2227 4.4893 0.92533 0.12933-0.13333-0.15333-0.664-0.936-1.2293-0.76667-0.564-2.0747-1.112-3.5933-1.1053-1.5187 7e-3 -2.796 0.56533-3.5307 1.136-0.748 0.57466-1.004 1.1067-0.86667 1.2387" fill="#000"/>
<path d="m231.03 356.95c0.0107-0.13733-1.5053-0.4-3.9613-0.712-0.62267-0.0653-1.212-0.188-1.3173-0.612-0.14667-0.44933 0.11466-1.1187 0.416-1.8413 0.58533-1.5027 1.1987-3.076 1.8427-4.728 2.556-6.7333 4.4067-12.269 4.1347-12.369-0.27333-0.1-2.5667 5.276-5.124 12.009-0.616 1.66-1.204 3.2413-1.764 4.756-0.236 0.70533-0.64 1.5067-0.32267 2.4373 0.16667 0.464 0.624 0.80133 1.0227 0.908 0.4 0.12133 0.74933 0.12933 1.0587 0.14667 2.4707 0.13333 4.0053 0.144 4.0147 5e-3" fill="#000"/>
<path d="m229.34 385.73s11.887 0.764 23.663-6.296c0 0-5.7413 12.107-23.424 10.456l-0.23867-4.16" fill="#f68260"/>
<path d="m232.06 362.81c0.876-1.1573 2.4133-1.7907 3.9387-1.628 1.0587 0.11467 2.1267 0.62267 2.7693 1.4827 0.644 0.85867 0.77867 2.08 0.19333 2.8987-0.65733 0.92266-2.0333 1.136-3.196 0.80666-1.164-0.32933-2.1653-1.0947-3.116-1.856-0.264-0.21066-0.532-0.43066-0.69733-0.71866-0.164-0.28934-0.19867-0.66667 4e-3 -0.90534" fill="#f68260"/>
<path d="m238.2 358.63c-0.396-0.024-0.40133 2.6173-2.6667 4.4907-2.2613 1.8787-5.0827 1.584-5.104 1.952-0.036 0.16534 0.62934 0.51334 1.82 0.54534 1.168 0.04 2.8733-0.33467 4.26-1.48 1.3827-1.1507 1.976-2.6827 2.0667-3.7653 0.1-1.104-0.19467-1.7587-0.376-1.7427" fill="#000"/>
<path d="m238.78 334.65c0.24 0.66266 2.6747 0.348 5.5347 0.692 2.868 0.28666 5.1747 1.1227 5.5547 0.52933 0.16933-0.28267-0.232-0.90533-1.1653-1.5467-0.924-0.63866-2.4-1.2453-4.1173-1.4373-1.7173-0.18667-3.2893 0.0853-4.332 0.508-1.0493 0.42133-1.5787 0.94133-1.4747 1.2547" fill="#000"/>
<path d="m216.81 331.42c0.428 0.552 2.108-0.0213 4.128-0.048 2.02-0.0987 3.7307 0.37067 4.124-0.20666 0.17333-0.28134-0.096-0.83467-0.844-1.356-0.736-0.52134-1.968-0.948-3.356-0.90534-1.388 0.0427-2.5907 0.544-3.2933 1.1093-0.71333 0.568-0.948 1.1373-0.75866 1.4067" fill="#000"/>
<path d="m267.62 345.05c1.3387-0.924 3.2107-0.58133 4.62 0.232 3.2467 1.872 4.8613 6.1547 3.656 9.6973-1.2053 3.5427-5.1 5.96-8.8187 5.4747" fill="#f8a58d"/>
<path d="m239.84 302.68c-6.44 0.21334-11.324 2.1667-16.976 5.2507-5.652 3.0853-10.379 8.1747-12.119 14.363-0.36933 1.3133-0.57867 2.8093 0.14267 3.968 0.952 1.5307 3.2013 1.784 4.8453 1.0427 1.6453-0.74133 2.8253-2.2093 3.9413-3.624 0.836 3.2333 4.052 5.6907 7.4 5.652 3.348-0.036 6.5067-2.5653 7.2693-5.816 0.0267 3.384 3.4213 6.1813 6.812 6.06 3.3893-0.12266 6.392-2.7307 7.52-5.9213 0.63066 3.0067 1.304 6.1133 3.108 8.604 1.804 2.4893 5.0707 4.2013 7.9987 3.2493-0.41466 2.6267-0.81733 5.392 0.116 7.8813 0.93467 2.4907 3.708 4.5067 6.2293 3.644 2.448-0.83867 3.3973-3.7307 3.9707-6.2493 1.104-4.8547 2.0493-9.7947 1.8933-14.769-0.15467-4.976-1.4893-10.035-4.548-13.969-3.1653-4.0667-7.9587-6.648-12.951-7.9627s-10.215-1.4613-15.377-1.396" fill="#000"/>
<path d="m268.86 355.2c0.0507-0.12534 0.68666 0.15066 1.54-0.24134 0.83866-0.332 1.604-1.5707 1.5147-3.0107-0.0493-1.46-0.996-2.5067-1.884-2.8253-0.884-0.36267-1.536-0.18534-1.572-0.32134-0.0613-0.0867 0.6-0.55466 1.7667-0.29466 0.56133 0.132 1.216 0.46666 1.728 1.0747 0.50533 0.6 0.83467 1.4333 0.876 2.32 0.128 1.776-0.99067 3.3893-2.2107 3.6653-1.2013 0.31467-1.8533-0.296-1.7587-0.36666" fill="#f68260"/>
<path d="m267.08 360.3c0 1.2693 1.032 2.2973 2.304 2.2973 1.2733 0 2.3053-1.028 2.3053-2.2973 0-1.2693-1.032-2.2987-2.3053-2.2987-1.272 0-2.304 1.0293-2.304 2.2987" fill="#3b5998"/>
<path d="m255.81 297.06c-0.0147-0.0667 1.0667-0.38 2.8693-0.328 1.7933 0.0427 4.296 0.58533 6.696 1.9627 2.3947 1.3853 4.12 3.2787 5.0547 4.808 0.948 1.536 1.2187 2.6293 1.1533 2.648-0.11333 0.0493-0.54267-0.96267-1.56-2.372-1.0067-1.4107-2.704-3.156-4.9947-4.4827-2.2973-1.3147-4.6587-1.908-6.3827-2.0733-1.7293-0.176-2.8213-0.04-2.836-0.16267" fill="#3b5998"/>
<path d="m265.05 297.07c-0.024 1e-3 -0.0453-0.188-0.0627-0.55466 4e-3 -0.364 0.0627-0.91867 0.33733-1.5693 0.504-1.304 2.0707-2.948 4.5627-3.5307 2.52-0.688 5.712 0.604 7.928 3.0427 1.1333 1.2107 2.092 2.6787 2.8747 4.2853 0.78534 1.6027 1.424 3.3267 2.1013 5.0627 0.676 1.7333 1.376 3.4093 2.2627 4.8947 0.88934 1.4787 1.9773 2.7707 3.2107 3.7493 1.2267 0.98134 2.6187 1.6267 3.992 1.8173 1.3693 0.22933 2.6813-0.0653 3.7667-0.524 2.1893-0.988 3.4093-2.6667 3.972-3.8627 0.548-1.232 0.576-2.0107 0.65066-2 0.024 3e-3 0.02 0.19333-0.0107 0.55733-0.036 0.36267-0.148 0.89467-0.392 1.5493-0.50667 1.2747-1.7147 3.0907-4.0173 4.2027-1.1387 0.51867-2.5547 0.87067-4.0493 0.648-1.4893-0.18133-2.9973-0.85866-4.3067-1.8853-1.3173-1.0227-2.464-2.3653-3.3987-3.9013-0.93067-1.5413-1.6453-3.248-2.3267-4.9933-1.324-3.4893-2.604-6.8347-4.7987-9.1667-2.1013-2.3453-5.0187-3.5707-7.3573-2.9973-2.3413 0.48667-3.872 1.9707-4.4173 3.164-0.58933 1.2107-0.42533 2.024-0.52133 2.012" fill="#33535f"/>
<path d="m231.76 324.28c-0.024 4e-3 -0.0627-0.16267-0.11467-0.484-0.0373-0.32133-0.14533-0.79467-0.16266-1.4133-0.10534-1.2333-0.068-3.0413 0.328-5.228 0.38666-2.1853 1.252-4.728 2.6987-7.2933 1.4813-2.5387 3.5947-5.0973 6.396-7.0533 2.7827-1.9747 5.8387-3.2013 8.6813-3.9133 2.8493-0.73067 5.5173-0.916 7.7333-0.79067 2.2173 0.12933 3.9867 0.52133 5.1533 0.93867 0.59467 0.168 1.0213 0.40533 1.3227 0.52533 0.29733 0.13467 0.44667 0.216 0.436 0.23867-0.0427 0.16133-2.5533-1.108-6.932-1.2133-2.1707-0.06-4.776 0.172-7.5533 0.92-2.7707 0.73067-5.744 1.948-8.44 3.86-2.712 1.8933-4.772 4.3587-6.244 6.8107-1.4373 2.48-2.332 4.94-2.772 7.0693-0.904 4.2773-0.36 7.0267-0.53067 7.0267" fill="#33535f"/>
<path d="m242.89 323.1c-0.0413-1e-3 -0.08-0.488-0.048-1.372 0.0293-0.88266 0.16666-2.1613 0.51333-3.708 0.67067-3.08 2.4053-7.2827 5.7333-10.864 3.328-3.5827 7.388-5.6253 10.408-6.528 1.516-0.46266 2.78-0.69733 3.6587-0.79466 0.87733-0.0987 1.3667-0.0987 1.3707-0.056 0.02 0.12933-1.9347 0.29066-4.876 1.3173-2.9227 1.0027-6.8253 3.0587-10.053 6.5347-3.2267 3.4733-4.9853 7.52-5.7653 10.509-0.80133 3.0093-0.80933 4.972-0.94133 4.9613" fill="#33535f"/>
<path d="m239.84 427.19c-3.8587-11.824-13.292-23.867-23.659-19.523-11.537 4.836-14.744 10.964-21.067 20.458-6.3224 9.4964-10.201 20.363-14.018 31.108-1.4927 4.2025-2.9333 9.0785-0.64373 12.908 1.9749 3.3016 6.0401 4.6079 9.7656 5.5989 9.6079 2.5557 19.314 4.7453 29.09 6.5636 3.9213 0.72813 8.224 1.3401 11.692-0.6276 4.404-2.4989 5.7467-8.0921 6.664-13.064 3.22-17.445 6.44-34.891 9.66-52.336" fill="#3b5998"/>
<path d="m228.75 402-15.177 6.5427c-7.6709 6.0413-9.8391 16.387-9.5781 26.131l-6.3115 106.85s44.268 27.361 95.998-1.2521c1.3467-0.74532-8.6613-25.183-8.6613-25.183l14.089-53.357c1.0853-7.6719 1.7493-23.577-0.25334-31.127-5.136-19.363-18.868-25.155-32.973-29.033 0 0-14.111 11.84-27.876 9.3453 0 0-8.3987-0.78-9.256-8.9173" fill="#3b5998"/>
<path d="m258.9 545.79c-4.2947 0-8.5893-1.1547-12.211-3.4682-5.0787-3.2453-8.6387-8.3401-12.063-13.302-8.756-12.688-17.512-25.376-26.268-38.065l0.42-0.2428c0.996-2.2984 3.5333-3.4427 6.0893-3.4427 0.968 0 1.9387 0.164 2.828 0.49067 3.2413 1.1932 5.6333 3.9255 7.8253 6.5948 5.924 7.2161 11.603 14.883 19.341 20.107 4.9293 3.3292 10.968 5.4917 16.835 5.4917 3.3427 0 6.6307-0.70267 9.624-2.2917 1.416-0.752 2.756-1.6905 4.2947-2.1468 0.52266-0.15467 1.0813-0.2412 1.6347-0.2412 1.0747 0 2.128 0.32506 2.8507 1.1 0.708 0.7584 0.98533 1.8188 1.1667 2.8401 1.5347 8.6265-2.4547 17.985-9.7387 22.852-3.7107 2.4802-8.1707 3.7245-12.629 3.7245" fill="#3b5998"/>
<path d="m243.53 429.56c0 4.9943 4.06 9.0437 9.068 9.0437 5.0093 0 9.0693-4.0495 9.0693-9.0437 0-4.9948-4.06-9.0443-9.0693-9.0443-5.008 0-9.068 4.0495-9.068 9.0443" fill="#fff"/>
<path d="m210.34 421.84c0 4.9948 4.06 9.0443 9.0667 9.0443 5.0093 0 9.0693-4.0495 9.0693-9.0443 0-4.9957-4.06-9.0451-9.0693-9.0451-5.0067 0-9.0667 4.0493-9.0667 9.0451" fill="#fff"/>
<path d="m203.02 508.45c0 4.9948 4.0603 9.0439 9.0683 9.0439s9.068-4.0491 9.068-9.0439c0-4.9963-4.06-9.0452-9.068-9.0452s-9.0683 4.0489-9.0683 9.0452" fill="#fff"/>
<path d="m219.4 534.49c0 4.9943 4.06 9.0454 9.0693 9.0454 5.008 0 9.068-4.0511 9.068-9.0454 0-4.9948-4.06-9.0443-9.068-9.0443-5.0093 0-9.0693 4.0495-9.0693 9.0443" fill="#fff"/>
<path d="m261.67 536.68c0 4.9964 4.06 9.0453 9.068 9.0453 5.008 0 9.068-4.049 9.068-9.0453 0-4.9943-4.06-9.0437-9.068-9.0437-5.008 0-9.068 4.0495-9.068 9.0437" fill="#fff"/>
<path d="m225.86 481c0 4.9948 4.06 9.0443 9.068 9.0443s9.068-4.0495 9.068-9.0443c0-4.9943-4.06-9.0437-9.068-9.0437s-9.068 4.0495-9.068 9.0437" fill="#fff"/>
<path d="m216.79 452.48c0 4.9948 4.06 9.0443 9.0693 9.0443 5.008 0 9.068-4.0495 9.068-9.0443 0-4.9959-4.06-9.0468-9.068-9.0468-5.0093 0-9.0693 4.0509-9.0693 9.0468" fill="#fff"/>
<path d="m225.86 404.2c0.16134-0.11867 1.1213 2.772 4.6733 5.7507 1.7453 1.4867 4.1547 2.8667 7.032 3.816 2.88 0.92934 6.2493 1.3707 9.7227 0.988 3.4773-0.42266 6.6853-1.5013 9.4107-2.8493 2.7347-1.3387 5.0187-2.8947 6.8373-4.3147 1.8213-1.424 3.2067-2.6893 4.1427-3.5853 0.93867-0.89467 1.452-1.3987 1.4907-1.3613 0.032 0.0267-0.41467 0.59333-1.2987 1.552-0.88133 0.95866-2.2253 2.2907-4.0293 3.7773-1.7987 1.4867-4.0853 3.1093-6.8587 4.5053-2.76 1.404-6.0413 2.532-9.6133 2.9653-3.5867 0.396-7.0547-0.08-10.004-1.0707-2.948-1.008-5.4-2.4747-7.152-4.0493-1.76-1.564-2.9013-3.1213-3.52-4.2773-0.352-0.552-0.50934-1.0453-0.66-1.352-0.136-0.31733-0.196-0.48533-0.17334-0.49466" fill="#000"/>
<path d="m271.55 403.58c10.369 4.3347 21.161 8.9747 28.323 17.62 7.28 8.7864 9.816 20.728 9.2867 32.115-0.53067 11.387-3.844 22.437-7.1347 33.353-1.288 4.2708-3.016 9.052-7.132 10.79-3.5507 1.4984-7.604 0.15467-11.195-1.2428-9.264-3.6052-18.389-7.5615-27.352-11.861-3.5947-1.7239-7.4267-3.7692-9.0573-7.4-2.072-4.6129 0.16267-9.9156 2.3693-14.467 7.744-15.968 15.489-31.937 23.235-47.904" fill="#3b5998"/>
<path d="m284.61 458.83c0 4.9948 4.06 9.0437 9.0693 9.0437 5.0067 0 9.0667-4.0489 9.0667-9.0437s-4.06-9.0437-9.0667-9.0437c-5.0093 0-9.0693 4.0489-9.0693 9.0437" fill="#fff"/>
<path d="m260.59 475.37c0 4.9948 4.0587 9.0443 9.0667 9.0443 5.0093 0 9.0693-4.0495 9.0693-9.0443 0-4.9959-4.06-9.0464-9.0693-9.0464-5.008 0-9.0667 4.0505-9.0667 9.0464" fill="#fff"/>
<path d="m272.06 430.97c0 4.8989 3.98 8.8692 8.892 8.8692 4.9107 0 8.8907-3.9703 8.8907-8.8692 0-4.8975-3.98-8.8693-8.8907-8.8693-4.912 0-8.892 3.9719-8.892 8.8693" fill="#fff"/>
<path d="m253.63 482.95-2.3133 8.9041-46.076-33.584-14.11-20.054c-1.8875-2.6813-4.7427-4.5317-7.9672-5.1599-3.4219-0.66773-6.9677 0.0963-9.8084 2.1119l-13.127 9.3147s0.35427 7.0708 3.5437 5.6563c3.1901-1.4136 9.5699-4.948 9.5699-4.948l1.7724 16.967 7.7973 5.6557 7.7975 6.0109 52.025 51.645c11.209 11.125 30.049 8.0532 37.12-6.0536l7.7093-21.889-33.933-14.578" fill="#f8a58d"/>
<path d="m250.16 490.59c0.028-0.0697 0.89066 0.212 1.9347 1.1907 1.048 0.95986 2.1493 2.6729 2.6947 4.7719 0.544 2.0959 0.548 4.0495 0.5 5.4307-0.0573 1.3865-0.17467 2.2333-0.268 2.2319-0.0987-1e-3 -0.15467-0.85734-0.22267-2.2292-0.0773-1.3683-0.16266-3.2656-0.68-5.2563-0.51866-1.9849-1.4773-3.6172-2.376-4.6077-0.89066-1.0053-1.6413-1.4333-1.5827-1.5319" fill="#f68260"/>
<path d="m173.26 446.07c-0.0744-0.0495 0.14854-0.59213 0.69174-1.376 0.53906-0.76147 1.4583-1.8443 2.9244-2.3641 1.512-0.50667 2.9928 0.0172 3.7157 0.71466 0.7552 0.72547 0.72707 1.4385 0.65573 1.4296-0.11146 0.0396-0.26666-0.5484-0.96986-1.0509-0.6724-0.49747-1.9473-0.8532-3.1755-0.43707-1.25 0.43854-2.1527 1.3547-2.7683 2.0156-0.61773 0.67507-0.98906 1.1256-1.074 1.0683" fill="#f68260"/>
<path d="m181.51 450.6c-0.0785 0.0708-0.428-0.2464-1.0609-0.5984-0.6244-0.35373-1.5733-0.71467-2.65-0.712-1.0776 5e-3 -2.0233 0.376-2.6452 0.7344-0.62973 0.35467-0.97666 0.676-1.0552 0.6052-0.0672-0.0516 0.15574-0.5052 0.778-1.012 0.60947-0.50267 1.6667-1.0156 2.9199-1.0224 1.2525-3e-3 2.3135 0.50107 2.9271 0.9984 0.626 0.50267 0.85266 0.9536 0.7864 1.0068" fill="#f68260"/>
<path d="m253.63 482.95s-0.324 6e-3 -0.88533-0.212c-0.55467-0.2104-1.3653-0.66773-2.08-1.5771-0.71467-0.89587-1.3307-2.2188-1.516-3.8469-0.19467-1.6369 0.21066-3.5093 0.97866-5.3853 0.756-1.8917 1.892-3.7943 2.8587-5.9303 0.98933-2.1297 1.8467-4.4973 2.6373-7.0213 1.5787-5.0563 2.7173-10.79 4.312-16.731 1.596-5.9323 3.7027-11.513 6.7307-15.966 2.9547-4.4984 6.908-7.6144 10.587-9.3077 3.6947-1.74 7.0827-2.0467 9.3267-1.8907 2.264 0.16533 3.4387 0.652 3.4387 0.652-0.0173 0.0853-1.22-0.30267-3.452-0.38267-2.212-0.0707-5.5133 0.30534-9.1027 2.0653-3.58 1.7213-7.3947 4.7867-10.267 9.22-2.94 4.3865-5.004 9.8948-6.592 15.791-1.5853 5.9052-2.7453 11.653-4.3707 16.74-0.81333 2.5395-1.7013 4.9249-2.7267 7.0744-1.0067 2.1599-2.1613 4.0401-2.9267 5.8745-0.77867 1.8203-1.1933 3.6068-1.0453 5.1604 0.14 1.5557 0.69334 2.8396 1.344 3.7197 0.65067 0.89334 1.4 1.3667 1.92 1.612 0.52667 0.2532 0.84134 0.3 0.83067 0.3412" fill="#000"/>
<path d="m202.5 454c-0.19013-0.024 0.32133-5.2 1.1411-11.56 0.8204-6.3609 1.6401-11.496 1.8303-11.472 0.19014 0.024-0.32093 5.2-1.1412 11.561-0.82026 6.3588-1.6401 11.495-1.8301 11.471" fill="#000"/>
<path d="m181.77 473.8-2.4464 19.252-29.357-25.021-16.057 3.8771s16.556 34.763 29.634 48.532c13.078 13.768 20.131 15.727 25.067 15.942 6.7843 0.29734 9.8853-7.9651 9.8853-7.9651l2.9563-47.852-19.682-6.7651" fill="#f8a58d"/>
<path d="m179.44 492.54c0.164-0.0787 1.3016 1.9989 2.0692 4.7973 0.7792 2.7991 0.86933 5.1631 0.6876 5.1787-0.2 0.0229-0.59374-2.2572-1.3568-4.9932-0.75-2.7385-1.5828-4.8984-1.4-4.9828" fill="#f68260"/>
<path d="m147.13 419.23h-22.1c-3.3437 0-6.3285 3.8761-5.1265 7.0428l22.224 43.288c0.85934 1.6771 2.5885 2.7328 4.4765 2.7328l26.943-0.0573c3.0896-0.4172 4.2167-3.8437 2.936-5.7027l-21.443-42.381c-1.4771-3.012-4.5464-4.9225-7.9095-4.9225" fill="#33535f"/>
<path d="m145.64 421.84h-22.101c-2.7692 0-4.5604 2.9188-3.3 5.3776l21.696 42.347c0.85933 1.6771 2.588 2.7328 4.4765 2.7328h26.635c1.6235 0 2.6776-1.7079 1.9459-3.1532l-21.443-42.381c-1.4771-3.012-4.5468-4.9229-7.9093-4.9229" fill="#000"/>
<path d="m143.76 439.57-13.449 5.3719-2.8828 10.837 6.4797 16.133 23.766 3.4573-6.962-7.1145 0.8964-6.1948s6.6296-2.0787 6.7943-3.0933c0.16293-1.0145-0.82294-4.4172-1.8401-4.5801-1.0172-0.1636-7.9713 2.4255-7.9713 2.4255s8.2317-6.5161 8.002-7.5625c-0.23067-1.0468-1.1145-3.7239-2.7567-4.0213-1.6417-0.29734-14.925 5.9641-14.925 5.9641l-2.1568 4.9156-1.8817-7.8625s11.804-3.3104 8.8875-8.676" fill="#f8a58d"/>
<path d="m145.46 464.98c-0.0797 0.0229-0.33173-0.46773-0.45573-1.3411-0.1276-0.86826-0.0651-2.1215 0.40307-3.3948 0.47346-1.2709 1.2433-2.2625 1.9043-2.8385 0.66294-0.5844 1.1728-0.79227 1.2176-0.72293 0.13294 0.16146-1.6187 1.4213-2.4708 3.8025-0.90466 2.3615-0.39373 4.4573-0.5984 4.4948" fill="#f68260"/>
<path d="m139.06 462.63c-0.0785-0.0385 0.39853-1.312 0.53333-3.524 0.10427-1.0957 0.16667-2.4547 0.6772-3.9025 0.25667-0.7172 0.638-1.4599 1.238-2.0828 0.6-0.63027 1.3943-1.0609 2.1973-1.3813 3.2161-1.1667 6.112-2.1104 8.2323-2.7957 2.1167-0.67613 3.4417-1.0469 3.4735-0.95733 0.0313 0.0921-1.2364 0.62653-3.3115 1.4197-2.0645 0.8-4.9791 1.8333-8.1344 2.9761-0.76347 0.3068-1.4557 0.6844-1.9692 1.2135-0.52027 0.52507-0.874 1.1761-1.1265 1.8308-0.50467 1.3213-0.62347 2.6369-0.78907 3.7359-0.26093 2.2333-0.9292 3.5251-1.0209 3.4677" fill="#f68260"/>
<path d="m135.98 460.2c-0.18907-0.0317-0.15107-1.2187 0.0859-2.6531 0.23654-1.4333 0.58187-2.5693 0.77094-2.5391 0.18906 0.0323 0.15093 1.2188-0.086 2.6521-0.23587 1.4348-0.5812 2.5708-0.7708 2.54" fill="#f68260"/>
<path d="m135.62 430.01c0 1.5563 1.2604 2.8161 2.8156 2.8161s2.8156-1.2599 2.8156-2.8161c0-1.5547-1.2604-2.8145-2.8156-2.8145s-2.8156 1.2599-2.8156 2.8145" fill="#fafaf9"/>
<path d="m190.71 473.83c0.0213-0.0229 0.3068 0.2052 0.82187 0.6532 0.5812 0.51866 1.3125 1.1735 2.2025 1.9708 1.9579 1.8104 4.6079 4.2583 7.76 7.1735l0.1036 0.0943-0.0115 0.14947c-0.35 4.4896-0.76146 9.7692-1.2016 15.415-0.60826 8.2709-1.0844 15.761-1.3495 21.188-0.11774 2.6267-0.2156 4.7948-0.28854 6.4272-0.0568 1.5171-0.10986 2.3583-0.15773 2.3583-0.0485 0-0.0855-0.8412-0.112-2.3625-0.0213-1.5213-9e-3 -3.7239 0.0681-6.4427 0.1396-5.4375 0.53814-12.943 1.1469-21.219 0.41666-5.6692 0.87026-10.964 1.3016-15.419l0.0916 0.24267c-3.0823-2.9864-5.6744-5.4984-7.5885-7.3531-0.8448-0.84533-1.5391-1.5401-2.0907-2.0923-0.47494-0.48906-0.7176-0.76146-0.69627-0.78386" fill="#f68260"/>
</g>
</g>
</svg>
