<svg viewBox="0 0 943.09 568.09" xmlns="http://www.w3.org/2000/svg" style="width: 100%; max-height: 200px; margin-top: 20px; margin-bottom: 16px;"><g transform="matrix(1.3333 0 0 -1.3333 0 568.09)"><g transform="scale(.1)"><path fill="#dadbd8"></path><path d="m6166 1065.8c-43.66 27.42-93.68 44.64-144.97 49.9-23.69 2.43-49.57 1.74-68.57-12.61-4.04-3.04-7.97-7.54-7.06-12.51 0.66-3.67 3.75-6.32 6.71-8.58 58.98-44.99 148.2-50.67 213.89-16.2" fill="#dadbd8"></path><path d="m6162.3 1069.9c-32.82 25.62-65.83 51.41-93.63 82.38-27.8 30.99-50.4 67.78-58.7 108.57-2.52 12.37-3.3 26.51 4.64 36.33 74.62-58.29 133.26-133.68 147.69-227.28" fill="#dadbd8"></path><path d="m6165.2 1066.4c-5.62 40.83-7.65 82.79 1.73 122.93 9.37 40.13 31.21 78.55 65.49 101.44 12.9-30.15 7.35-64.87-1.74-96.38-14.04-48.69-36.07-95.05-64.93-136.7" fill="#dadbd8"></path><path d="m6238.4 935.25c-44.41-5.398-83.09-28.809-116.26-58.84-33.16-30.019-56.73-70.488-66.5-114.16 43.57 2.691 80.53 33.41 107.33 67.871 26.81 34.438 45.38 72.238 74.83 104.46" fill="#dadbd8"></path><path d="m6254.3 914.29c-35.77 88.111-22.81 194.29 33.11 271.23 25.3-90.01 16.01-191.68-33.11-271.23" fill="#dadbd8"></path><path d="m6351 799.17c-40.3 2.508-81.29-7.102-116.29-27.25-35-20.141-63.88-50.762-81.96-86.871-2.46-4.899-4.63-11.149-1.34-15.551 2.86-3.82 8.39-4.168 13.16-3.871 39.06 2.543 73.7 26.051 102.26 52.82 28.58 26.762 53.47 57.692 85.05 80.84" fill="#dadbd8"></path><path d="m6347.9 805.44c-20.79 66.528-22.08 139.03-3.68 206.26 7.26 26.55 19.46 54.5 44.01 66.95 2.1 1.07 4.54 2.01 6.74 1.18 2.09-0.78 3.29-2.92 4.26-4.93 8.73-18.24 11.27-38.96 10.38-59.17-0.91-20.21-5.1-40.121-9.28-59.898-7.74-36.621-11.85-75.973-31.92-107.54-4.77-7.488-8.97-15.59-12.77-23.609-3.81-8.032-3.84-10.848-7.31-17.239" fill="#dadbd8"></path><path d="m6603.8 767.31c-18.96 72.121 1.17 159.55 46.61 218.67 3.35 4.352 7.78 9.02 13.25 8.512 8.37-0.773 10.54-11.922 10.16-20.32-3.29-73.692-27.87-146.32-70.02-206.86" fill="#dadbd8"></path><path d="m6626.8 751.54c87.62-22.789 188.13-0.629 261.01 53.09-43.2 21.883-94.1 28.133-141.3 17.34-47.2-10.797-90.33-31.938-119.71-70.43" fill="#dadbd8"></path><path d="m6646.3 799.56c49.08 80 143.15 132.23 236.89 136.97-10.8-38.121-42.13-67.75-77.48-85.652-35.35-17.91-74.81-25.707-113.71-33.258-15.13-2.941-35.88-6.172-45.7-18.062" fill="#dadbd8"></path><path d="m6608.7 1032.6c13.28 45.51 26.64 91.44 30.29 138.73 3.65 47.27-3.09 96.64-27.63 137.21-45.84-88.69-50.47-192.32-4.04-280.7" fill="#dadbd8"></path><path d="m6763 1110.6c53.61 97.41 162.96 175.23 273.63 186.14-42.69-106.29-159.1-188.43-273.63-186.14" fill="#dadbd8"></path><path d="m6729.2 1091.5c79.95-12.17 148.05-63.24 222.76-94.189 15.97-6.621 33.21-11.89 50.36-9.629 17.15 2.239 34.06 13.748 37.91 30.598 3.18 14-3.18 28.87-13.23 39.13s-23.32 16.66-36.58 22.19c-81.37 33.87-168.63 34.72-254.34 14.17" fill="#dadbd8"></path><path d="m6683 1035.4c18.1-5.18 24.28-14.55 38.62-26.76 48.62-41.398 106.93-71.37 168.91-86.769 6.46-1.609 14.93-2.242 18.12 3.59 2.79 5.098-0.74 11.258-4.37 15.801-25.97 32.488-63.01 54.718-101.99 69.228-38.98 14.52-72.76 32.02-119.29 28.26" fill="#dadbd8"></path><path d="m6630.8 1374c65.01-60.68 156.57-91.83 245.09-83.39 4.03 0.38 8.41 1.03 11.16 4.01 6.16 6.71-1.24 17.07-8.43 22.67-72.05 56.17-159.34 79.47-247.82 56.71" fill="#dadbd8"></path><path d="m6692.7 1396.7c85.93 64.42 203.76 83.87 305.83 50.46-38.51-37.96-91.95-58.38-145.73-63.98-53.79-5.6-107.65 0.36-160.1 13.52" fill="#dadbd8"></path><path d="m6668.1 1552.3c-7.08 71.92-2.48 128.69-7.48 200.95-0.39 5.77-1.63 12.73-7.03 14.81-7.52 2.89-13.79-6.35-16.26-14.03-21.42-66.61-9.71-143.01 30.66-200.14" fill="#dadbd8"></path><path d="m6662.9 1544.4c48.75 30.15 85.32 69.52 119.14 115.8 23.53 32.19 43.37 70.77 38.01 110.29-33.03 0.65-64.44-17.57-85.93-42.68-21.5-25.11-34.27-56.5-43.81-88.14-9.54-31.65-16.22-64.17-27.41-95.27" fill="#dadbd8"></path><path d="m6780 1576.9c106.98 39.56 206.79 98.42 293.2 172.88-35.03 14.12-75.13 5.67-110.14-8.46-80-32.3-145.36-86.8-184.59-163.64" fill="#dadbd8"></path><path d="m6695.8 1505c54.13-5.92 109.11-9.78 162.81-0.8 52.78 8.83 102.66 29.74 151.98 50.51 4.08 1.71 8.54 3.77 10.32 7.84 1.95 4.4-0.12 9.76-3.7 13-3.56 3.23-8.32 4.77-12.96 6.07-53.62 15-111.48 7.98-164.24-9.81-52.76-17.8-96.02-38.93-144.21-66.81" fill="#dadbd8"></path><path d="m6386.8 1371.6c-36.92 74.54-34.52 161.52-2.62 238.34 22.45-34.21 25.19-77.78 21.09-118.51-4.11-40.71-16.5-82.62-17.3-123.53" fill="#dadbd8"></path><path d="m6239.2 1446c-92.19 1.75-184.42-37.53-247.03-105.24 46.02-7.23 93.41 4.64 135.27 25.08 41.85 20.44 79.05 49.11 115.91 77.58" fill="#dadbd8"></path><path d="m6140.1 1479.2c-45.1 3.66-88.5 9.24-131.87-4.04-43.36-13.29-82.83-43.46-100.51-85.23 42.19-4.75 84.96 5.82 123.63 23.34 38.67 17.53 73.83 41.8 108.75 65.93" fill="#dadbd8"></path><path d="m6286.9 1477.6c-40.58 26.58-82.25 53.65-129.49 64.66-47.24 11.02-101.99 2.87-134.93-32.73 38.24-22.44 84.64-25.09 128.98-25.06 44.35 0.04 98.7 0.54 140.51-14.26" fill="#dadbd8"></path><path d="m6287.2 1475.5c-69.36 68.11-95.66 190.48-67.75 283.6 54.53-82.84 78.95-185.05 67.75-283.6" fill="#dadbd8"></path><path d="m6477.9 1668.5c13.08 30.41 22.28 62.33 34.02 93.29 11.73 30.95 26.32 61.42 48.5 86 22.17 24.58 52.85 42.88 85.91 44.52-20.7-93.72-82.95-177.47-166.73-224.3" fill="#dadbd8"></path><path d="m6443.4 1628.3c-21.66 29.8-46.67 70.24-76.03 92.49-29.36 22.24-67.59 35.7-103.42 27.16 36.45-65.14 105.3-111.06 179.45-119.65" fill="#dadbd8"></path><path d="m6450.3 1666c-14.19 36.06-28.49 72.5-34.23 110.83-5.73 38.32-2.25 79.24 17.35 112.68 38.08-71.98 50.35-149.25 18.81-224.33" fill="#dadbd8"></path><path d="m6478.2 1889.5c21.56 71.35 86.9 123.89 157.44 148 8.89 3.04 18.31 5.57 27.6 4.13s18.4-7.78 20.35-16.98c2.57-12.13-7.45-23.01-16.89-31.08-54.93-46.96-119.49-82.61-188.5-104.07" fill="#dadbd8"></path><path d="m6479 1947.9c2.73 46.01 5.61 92.68 20.58 136.27 14.96 43.59 43.79 84.48 85.75 103.56 7.14-46.47-13.36-92.69-38.09-132.68-24.72-39.98-54.52-77.73-69.37-122.33" fill="#dadbd8"></path><path d="m6477.9 1916.2c-17.83 52-19.67 118.06-50.81 163.36-21.77 31.67-56.62 53.24-75.37 86.78-12.47-31.33-8.66-67.42 4.38-98.52 13.03-31.09 34.56-57.86 57.6-82.46 23.04-24.61 42.77-43.12 64.2-69.16" fill="#dadbd8"></path><path d="m6478.2 384.8c-1.39 0-2.59 346.9-2.69 774.72-0.09 427.97 0.95 774.8 2.34 774.8 1.38 0 2.58-346.83 2.68-774.8 0.1-427.82-0.94-774.72-2.33-774.72" fill="#dadbd8"></path><path d="m6781.4 1423.9c0.1-0.33-4.55-2.06-13.04-4.89-9.37-3.16-21.43-7.23-35.89-12.11-30.27-10.31-71.85-25.24-116.97-43.74-44.68-19.16-86.82-34.72-110.82-55.52-11.98-10.26-18.86-21.36-22.26-29.45-3.44-8.14-4.05-13.13-4.51-13.05-0.17 0.03-0.12 1.27 0.14 3.65 0.4 2.33 1.01 5.83 2.55 10.1 2.93 8.56 9.62 20.43 21.73 31.41 12.06 11 28.85 20.87 48.09 29.86 19.23 8.98 40.54 18.34 63.18 27.64 45.26 18.56 87.16 33 117.76 42.47 15.3 4.77 27.79 8.28 36.44 10.61 8.67 2.26 13.51 3.36 13.6 3.02" fill="#dadbd8"></path><path d="m6880.8 1668c0.12-0.13-1.14-1.47-3.65-3.9-2.96-2.77-6.64-6.24-11.14-10.46-10.34-9.39-24.4-22.18-41.55-37.75-35.89-31.95-84.55-75.28-138.32-123.16-53.98-48.05-100.64-93.97-132.98-128.55-16.19-17.27-28.94-31.57-37.65-41.55-4.06-4.64-7.38-8.44-10.04-11.49-2.34-2.6-3.63-3.9-3.75-3.8-0.14 0.11 0.88 1.63 2.96 4.45 2.1 2.78 5.16 6.94 9.34 12.09 8.25 10.39 20.63 25.08 36.53 42.7 31.75 35.28 78.16 81.74 132.25 129.89 54.18 47.95 103.49 91.03 139.31 122.07 17.58 15.09 32.01 27.46 42.61 36.57 4.75 3.93 8.64 7.15 11.75 9.74 2.73 2.19 4.21 3.27 4.33 3.15" fill="#dadbd8"></path><path d="m6627.8 1443.9c-1.42 0.63 9.86 26.68 21.1 59.61 11.34 32.92 16.68 60.72 18.12 60.48 1.31-0.13-1.89-28.74-13.37-62.09-5.66-16.66-11.89-31.3-16.8-41.7-4.91-10.39-8.44-16.58-9.05-16.3" fill="#dadbd8"></path><path d="m6478.6 1233.9c-0.27-0.2-3.23 3.25-8.32 9.66-5.64 7.24-12.79 16.4-21.31 27.33-17.91 23.14-42.65 55.09-70.4 90.05s-53.25 66.31-71.73 89.01c-8.71 10.78-16 19.81-21.77 26.95-5.09 6.42-7.79 10.07-7.52 10.3 0.26 0.22 3.45-3 9-9.03 5.56-6.01 13.42-14.88 23.01-25.94 19.19-22.12 45.14-53.17 72.94-88.18 27.77-35 52.12-67.32 69.3-91.03 8.61-11.85 15.45-21.53 20.05-28.3 4.61-6.77 7.03-10.61 6.75-10.82" fill="#dadbd8"></path><path d="m6412.1 1319.2c-0.82-0.88-18.56 20.15-27.86 52.13-6.85 22.53-7.15 43.13-6.3 52.55l2.21-0.17c-0.99-4.02-1.72-6.14-2.12-6.08-0.39 0.06-0.41 2.31-0.08 6.43l2.21-0.18c0.81-9.34 2.23-29.24 8.9-51.13 8.96-30.97 24.38-52.7 23.04-53.55" fill="#dadbd8"></path><path d="m6326.3 1427.2c-0.65-0.7-6.36 6.5-19.45 11.3-12.99 5.01-32.53 6.12-53.98 4.28-21.46-1.57-40.64-5.4-54.36-8.77-13.72-3.4-22.1-6.07-22.36-5.36-0.23 0.59 7.75 4.45 21.41 8.78 13.64 4.29 33.08 8.75 54.94 10.35 21.69 1.88 42.25 0.21 55.68-6 13.6-6.03 18.56-14.46 18.12-14.58" fill="#dadbd8"></path><path d="m6305.9 1453.3c-0.39-0.78-11.32 4.54-29.78 10.85-18.43 6.34-44.68 12.99-74.32 15.29-29.66 2.22-56.61-0.38-75.79-3.85-19.2-3.43-30.82-7.04-31.08-6.21-0.11 0.33 2.7 1.52 7.9 3.37 5.16 1.93 12.86 4.13 22.49 6.32 19.24 4.4 46.67 7.63 76.86 5.37 30.18-2.34 56.8-9.69 75.15-16.96 9.19-3.62 16.45-6.96 21.28-9.66 4.85-2.62 7.45-4.21 7.29-4.52" fill="#dadbd8"></path><path d="m6477.9 1564c-1.34-0.34-11.07 33.45-21.72 75.46-10.67 42.02-18.21 76.35-16.87 76.69s11.07-33.44 21.72-75.46c10.66-42.01 18.21-76.34 16.87-76.69" fill="#dadbd8"></path><path d="m6479.3 1564c-1.49-0.47-7.75 22.09-24.08 45.18-15.89 23.57-36.18 35.4-35.43 36.57 0.27 0.53 5.86-1.53 13.67-7.05 7.84-5.46 17.52-14.7 25.86-26.64 16.96-24.02 21.19-47.97 19.98-48.06" fill="#dadbd8"></path><path d="m6478.2 569.73c-0.54-0.082-1.56 8.34-5.47 23.071-3.87 14.73-11.14 35.621-23.18 60.058-23.97 48.973-67.58 111.07-123 173.27-27.45 31.383-54.09 60.973-76.71 89.312-22.65 28.289-41.26 55.258-54.85 79.11-13.64 23.839-22.51 44.289-27.7 58.709-2.54 7.24-4.41 12.89-5.43 16.8-1.1 3.87-1.6 5.93-1.44 5.98 0.45 0.15 2.98-7.94 8.7-22.08 5.71-14.13 15.01-34.2 28.92-57.608 13.89-23.454 32.66-50.012 55.4-78.012 22.7-28.051 49.38-57.481 76.89-88.91 55.56-62.36 99.07-125.25 122.41-175.03 11.73-24.847 18.57-46.136 21.88-61.128 1.61-7.52 2.69-13.368 3.07-17.399 0.5-4.019 0.67-6.121 0.51-6.141" fill="#dadbd8"></path><path d="m6752.2 879.14c0.16-0.371-5.07-3.032-14.35-8.071-9.21-5.16-22.28-13.129-37.25-24.609-14.97-11.461-31.71-26.512-48.9-44.609-17.16-18.133-34.85-39.192-52.89-61.75-36.08-45.27-69.83-85.332-90.03-117.31-10.27-15.859-17.73-29.23-22.61-38.609-4.93-9.36-7.54-14.621-7.9-14.45-0.16 0.059 0.3 1.469 1.33 4.071 1.07 2.59 2.52 6.449 4.82 11.25 4.37 9.691 11.41 23.418 21.36 39.64 19.62 32.739 53.09 73.36 89.12 118.55 18.08 22.61 35.98 43.699 53.47 61.817 17.52 18.062 34.7 33.011 50.11 44.242 15.41 11.238 28.9 18.82 38.46 23.5 4.76 2.39 8.63 3.859 11.2 4.961 2.6 1.058 3.99 1.539 4.06 1.379" fill="#dadbd8"></path><path d="m6757.6 778.76c0.05-0.731-11.6-2.141-30.36-4.41-18.69-2.422-44.7-5.532-71.96-14.18-27.16-8.832-49.74-22.313-64.44-33.801-14.86-11.492-21.86-20.98-22.54-20.422-0.25 0.172 1.21 2.75 4.49 6.981 3.24 4.25 8.56 9.929 15.81 16.179 14.47 12.473 37.26 26.762 65.14 35.84 27.93 8.84 54.29 11.403 73.15 12.93 18.93 1.371 30.65 1.531 30.71 0.883" fill="#dadbd8"></path><path d="m6577.1 716.97c-1.59 0.902 12.1 21.793 22.7 49.883 9.95 28.347 12.29 53.218 14.07 52.918 0.65-0.071 0.62-6.278-0.5-16.278-1.2-9.953-3.59-23.781-8.85-38.34-5.3-14.562-12.26-26.711-17.6-35.191-5.41-8.449-9.26-13.34-9.82-12.992" fill="#dadbd8"></path><path d="m6840.9 1148.6c0.07-0.15-1.61-1.04-4.85-2.58-3.77-1.71-8.49-3.85-14.26-6.48-6.25-2.68-13.82-6.07-22.37-10.58-8.57-4.42-18.57-8.98-28.99-15.23-5.3-3.01-10.81-6.15-16.56-9.42-5.74-3.3-11.41-7.22-17.46-11-12.2-7.4-24.43-16.52-37.48-25.83-25.53-19.38-52.38-42.32-78.23-68.799-25.6-26.75-47.62-54.371-66.11-80.562-8.86-13.367-17.55-25.887-24.53-38.348-3.58-6.16-7.3-11.972-10.41-17.82-3.06-5.852-6.01-11.481-8.83-16.871-5.9-10.621-10.11-20.77-14.24-29.5-4.21-8.692-7.35-16.379-9.81-22.711-2.43-5.867-4.41-10.649-5.99-14.469-1.42-3.289-2.25-5-2.41-4.941-0.16 0.051 0.35 1.863 1.46 5.281 1.36 3.91 3.05 8.82 5.13 14.832 2.19 6.469 5.07 14.297 9.05 23.137 3.91 8.863 7.91 19.179 13.63 29.961 2.76 5.468 5.63 11.179 8.62 17.121 3.02 5.941 6.69 11.828 10.21 18.09 6.88 12.621 15.5 25.328 24.32 38.859 18.42 26.52 40.51 54.461 66.31 81.42 26.05 26.7 53.21 49.72 79.08 69.03 13.22 9.28 25.62 18.33 38.01 25.63 6.13 3.74 11.9 7.59 17.72 10.82 5.83 3.2 11.45 6.26 16.82 9.19 10.58 6.1 20.75 10.46 29.48 14.66 8.7 4.28 16.43 7.43 22.81 9.85 5.94 2.27 10.79 4.14 14.66 5.62 3.37 1.23 5.17 1.81 5.22 1.64" fill="#dadbd8"></path><path d="m6624.1 1003.4c-0.44 0.07 1.97 8.48 11.92 17.75 9.71 9.24 27.41 17.8 48.03 18.43 20.56 0.54 38.38-5.21 50.55-9.88 12.23-4.81 19.35-8.7 19.11-9.28-0.29-0.7-7.91 2.04-20.28 5.94-12.32 3.77-29.74 8.74-49.22 8.2-19.41-0.6-36.17-8.07-45.88-16.09-9.94-8.01-13.43-15.56-14.23-15.07" fill="#dadbd8"></path><path d="m6591.7 969.92c-1.38 0.769 10.85 18.687 13.63 44.378 3.2 25.64-4.57 45.89-3.06 46.31 0.56 0.24 3.28-4.48 5.64-12.92 2.37-8.39 3.93-20.62 2.4-33.98-1.58-13.34-5.92-24.878-10.16-32.511-4.24-7.668-7.98-11.617-8.45-11.277" fill="#dadbd8"></path><path d="m6238.7 520.02c7.47-132.57 47.42-267.39 108.87-403.7h267.2c58.61 134.96 95.79 269.58 102.41 403.7h-478.48" fill="#dadbd8"></path><path d="m6673.8 305.5c0-1.379-87.97-2.5-196.48-2.5-108.54 0-196.49 1.121-196.49 2.5s87.95 2.512 196.49 2.512c108.51 0 196.48-1.133 196.48-2.512" fill="#fafaf9"></path><path d="m6667.9 257.48c0-1.39-82.48-2.511-184.19-2.511-101.76 0-184.22 1.121-184.22 2.511 0 1.379 82.46 2.5 184.22 2.5 101.71 0 184.19-1.121 184.19-2.5" fill="#fafaf9"></path><path d="m6351.8 432.98c1.39 0 2.51-27.558 2.51-61.55 0-33.989-1.12-61.551-2.51-61.551-1.38 0-2.51 27.562-2.51 61.551 0 33.992 1.13 61.55 2.51 61.55" fill="#fafaf9"></path><path d="m6495 432.98c1.38 0 2.51-28.539 2.51-63.73 0-35.219-1.13-63.75-2.51-63.75-1.39 0-2.51 28.531-2.51 63.75 0 35.191 1.12 63.73 2.51 63.73" fill="#fafaf9"></path><path d="m6629.4 434.06c1.39 0 2.51-29.11 2.51-65.008 0-35.91-1.12-65.012-2.51-65.012s-2.51 29.102-2.51 65.012c0 35.898 1.12 65.008 2.51 65.008" fill="#fafaf9"></path><path d="m6708.6 432.98c0-1.39-103.18-2.511-230.45-2.511-127.31 0-230.47 1.121-230.47 2.511 0 1.379 103.16 2.512 230.47 2.512 127.27 0 230.45-1.133 230.45-2.512" fill="#fafaf9"></path><path d="m6934 102.39c0-1.442-1547.8-2.6097-3456.6-2.6097-1909.5 0-3456.9 1.1677-3456.9 2.6097 0 1.441 1547.4 2.601 3456.9 2.601 1908.8 0 3456.6-1.16 3456.6-2.601" fill="#000"></path><path d="m1227 2442.3 42.39 71.71c-12.11 46.88-11.83 97.58 3.49 147.24 44.06 142.82 195.56 222.88 338.37 178.82 142.82-44.06 222.87-195.55 178.82-338.37-44.07-142.82-195.56-222.88-338.37-178.82-59.64 18.4-108.27 55.57-141.56 102.98l0.06-0.14-83.2 16.58" fill="#fff"></path><path d="m1227 2442.3s2-0.28 5.64-0.94c3.85-0.71 9.19-1.69 16.11-2.96 14.22-2.68 34.89-6.57 61.66-11.6l-1.24-1.47-0.06 0.14-3.06 8.01 5-6.99c19.96-27.94 51.96-61.61 100.08-85.5 23.86-12.07 51.76-20.81 82.17-25.14 30.38-4.35 63.53-3.73 97 3.91 33.41 7.57 67.07 22.15 97.41 44.01 30.34 21.8 57.3 50.93 77.08 85.77 39.7 69.27 47.82 163.2 10.13 243.32-2.39 4.98-4.58 10.04-7.11 14.9l-8.37 14.16-4.18 7.04-4.81 6.61-9.58 13.16c-13.94 16.53-28.78 32.21-45.85 44.8-33.56 25.88-72.34 43.13-111.74 51.01-39.47 7.7-79.27 6.17-115.65-2.79-36.44-8.91-69.43-25.13-96.96-45.67-55.35-41.34-87.64-98.59-100.27-150.29-13.07-52.14-8.32-98.33 0.05-131.5l0.11-0.45-0.23-0.38c-13.85-22.87-24.55-40.53-31.91-52.69-3.61-5.89-6.39-10.44-8.4-13.73-1.91-3.1-3.02-4.74-3.02-4.74s0.75 1.48 2.48 4.54c1.87 3.28 4.46 7.83 7.82 13.72 7.19 12.46 17.63 30.56 31.15 54.01l-0.11-0.83c-8.87 33.32-14.12 79.98-1.25 132.87 12.42 52.42 44.87 110.74 100.97 152.97 27.89 20.98 61.39 37.58 98.44 46.75 36.99 9.22 77.53 10.88 117.75 3.1 40.13-7.95 79.68-25.47 113.91-51.81 17.41-12.84 32.57-28.8 46.77-45.65l9.77-13.41 4.91-6.74 4.26-7.17 8.53-14.43c2.59-4.96 4.82-10.12 7.25-15.19 19.13-40.6 26.74-85.32 24.36-128.22-2.43-42.92-14.45-84.39-34.88-119.72-20.2-35.47-47.73-65.07-78.66-87.16-30.95-22.16-65.22-36.87-99.21-44.43-34.04-7.64-67.72-8.11-98.52-3.54-30.84 4.55-59.06 13.59-83.14 25.97-48.57 24.53-80.6 58.89-100.35 87.29l1.92 1.02 0.06-0.14 0.69-1.87-1.94 0.41c-26.98 5.67-47.8 10.05-62.14 13.07-6.75 1.45-11.96 2.57-15.71 3.38-3.49 0.76-5.13 1.21-5.13 1.21" fill="#000"></path><path d="m1640.8 2609.9c-1.54 14.06-8.28 27.25-17.65 37.84-9.17 10.38-21.18 18.59-34.7 21.61-14.37 3.2-30 0.22-42.18-8.05-7.24-4.91-13.19-11.66-17.31-19.38-3.97 6.89-9.42 12.92-15.96 17.45-12.09 8.4-27.69 11.54-42.09 8.48-13.55-2.88-25.64-10.96-34.92-21.24-9.48-10.5-16.35-23.62-18.04-37.67-2.1-17.58 1.21-36.86 10.25-52.09 9.56-16.08 25.07-29.11 41.04-38.84 26.85-16.37 62.22-36.87 62.22-36.87s30.1 22.27 57.12 38.36c16.07 9.57 31.71 22.43 41.44 38.41 9.2 15.14 12.7 34.38 10.78 51.99" fill="#3b5998"></path><path d="m1907.4 3337.9c-1.44 0-2.6 133.18-2.6 297.44 0 164.31 1.16 297.47 2.6 297.47s2.61-133.16 2.61-297.47c0-164.26-1.17-297.44-2.61-297.44" fill="#000"></path><path d="m1885.8 3337.9c-1.44 0-2.6 133.18-2.6 297.44 0 164.31 1.16 297.47 2.6 297.47s2.6-133.16 2.6-297.47c0-164.26-1.16-297.44-2.6-297.44" fill="#000"></path><path d="m3286.7 2040.1h-1429.6v1877h1429.6v-1877" fill="#33535f"></path><path d="m3219.4 2057.2h-1276.7v1829.6h1276.7v-1829.6" fill="#000"></path><path d="m2580.8 2058.8h-507.37v1225h507.37v-1225" fill="#33535f"></path><path d="m2235 3054.5h-80.12v80.11h80.12v-80.11" fill="#fff"></path><path d="m2367.1 3054.5h-80.12v80.11h80.12v-80.11" fill="#dadbd8"></path><path d="m2499.2 3054.5h-80.12v80.11h80.12v-80.11" fill="#dadbd8"></path><path d="m2235 2933.8h-80.12v80.13h80.12v-80.13" fill="#dadbd8"></path><path d="m2367.1 2933.8h-80.12v80.13h80.12v-80.13" fill="#fff"></path><path d="m2499.2 2933.8h-80.12v80.13h80.12v-80.13" fill="#dadbd8"></path><path d="m2235 2813.1h-80.12v80.12h80.12v-80.12" fill="#dadbd8"></path><path d="m2367.1 2813.1h-80.12v80.12h80.12v-80.12" fill="#dadbd8"></path><path d="m2499.2 2813.1h-80.12v80.12h80.12v-80.12" fill="#dadbd8"></path><path d="m2235 2692.4h-80.12v80.12h80.12v-80.12" fill="#fff"></path><path d="m2367.1 2692.4h-80.12v80.12h80.12v-80.12" fill="#dadbd8"></path><path d="m2499.2 2692.4h-80.12v80.12h80.12v-80.12" fill="#fff"></path><path d="m2235 2571.7h-80.12v80.12h80.12v-80.12" fill="#dadbd8"></path><path d="m2367.1 2571.7h-80.12v80.12h80.12v-80.12" fill="#dadbd8"></path><path d="m2499.2 2571.7h-80.12v80.12h80.12v-80.12" fill="#dadbd8"></path><path d="m2235 2451h-80.12v80.12h80.12v-80.12" fill="#dadbd8"></path><path d="m2367.1 2451h-80.12v80.12h80.12v-80.12" fill="#fff"></path><path d="m2499.2 2451h-80.12v80.12h80.12v-80.12" fill="#dadbd8"></path><path d="m2235 2330.3h-80.12v80.11h80.12v-80.11" fill="#dadbd8"></path><path d="m2367.1 2330.3h-80.12v80.11h80.12v-80.11" fill="#dadbd8"></path><path d="m2499.2 2330.3h-80.12v80.11h80.12v-80.11" fill="#fff"></path><path d="m2235 2209.6h-80.12v80.12h80.12v-80.12" fill="#fff"></path><path d="m2367.1 2209.6h-80.12v80.12h80.12v-80.12" fill="#dadbd8"></path><path d="m2499.2 2209.6h-80.12v80.12h80.12v-80.12" fill="#dadbd8"></path><path d="m2235 2088.9h-80.12v80.11h80.12v-80.11" fill="#dadbd8"></path><path d="m2367.1 2088.9h-80.12v80.11h80.12v-80.11" fill="#fff"></path><path d="m2499.2 2088.9h-80.12v80.11h80.12v-80.11" fill="#dadbd8"></path><path d="m2951.6 2053.8h-345.7v834.64h345.7v-834.64" fill="#33535f"></path><path d="m2716.1 2732.2h-54.58v54.58h54.58v-54.58" fill="#fafaf9"></path><path d="m2806.1 2732.2h-54.59v54.58h54.59v-54.58" fill="#dadbd8"></path><path d="m2896.1 2732.2h-54.59v54.58h54.59v-54.58" fill="#fafaf9"></path><path d="m2716.1 2650h-54.58v54.59h54.58v-54.59" fill="#dadbd8"></path><path d="m2806.1 2650h-54.59v54.59h54.59v-54.59" fill="#fafaf9"></path><path d="m2896.1 2650h-54.59v54.59h54.59v-54.59" fill="#fafaf9"></path><path d="m2716.1 2567.8h-54.58v54.59h54.58v-54.59" fill="#fafaf9"></path><path d="m2806.1 2567.8h-54.59v54.59h54.59v-54.59" fill="#dadbd8"></path><path d="m2896.1 2567.8h-54.59v54.59h54.59v-54.59" fill="#fafaf9"></path><path d="m2716.1 2485.5h-54.58v54.59h54.58v-54.59" fill="#fafaf9"></path><path d="m2806.1 2485.5h-54.59v54.59h54.59v-54.59" fill="#fafaf9"></path><path d="m2896.1 2485.5h-54.59v54.59h54.59v-54.59" fill="#dadbd8"></path><path d="m2716.1 2403.3h-54.58v54.59h54.58v-54.59" fill="#dadbd8"></path><path d="m2806.1 2403.3h-54.59v54.59h54.59v-54.59" fill="#fafaf9"></path><path d="m2896.1 2403.3h-54.59v54.59h54.59v-54.59" fill="#fafaf9"></path><path d="m2716.1 2321h-54.58v54.59h54.58v-54.59" fill="#fafaf9"></path><path d="m2806.1 2321h-54.59v54.59h54.59v-54.59" fill="#fafaf9"></path><path d="m2896.1 2321h-54.59v54.59h54.59v-54.59" fill="#dadbd8"></path><path d="m2716.1 2238.8h-54.58v54.59h54.58v-54.59" fill="#fafaf9"></path><path d="m2806.1 2238.8h-54.59v54.59h54.59v-54.59" fill="#dadbd8"></path><path d="m2896.1 2238.8h-54.59v54.59h54.59v-54.59" fill="#fafaf9"></path><path d="m2716.1 2156.5h-54.58v54.59h54.58v-54.59" fill="#dadbd8"></path><path d="m2806.1 2156.5h-54.59v54.59h54.59v-54.59" fill="#fafaf9"></path><path d="m2896.1 2156.5h-54.59v54.59h54.59v-54.59" fill="#fafaf9"></path><path d="m2716.1 2074.3h-54.58v54.58h54.58v-54.58" fill="#fafaf9"></path><path d="m2806.1 2074.3h-54.59v54.58h54.59v-54.58" fill="#fafaf9"></path><path d="m2896.1 2074.3h-54.59v54.58h54.59v-54.58" fill="#dadbd8"></path><path d="m3181.7 2062.6h-200.15v483.22h200.15v-483.22" fill="#33535f"></path><path d="m3045.3 2455.3h-31.61v31.6h31.61v-31.6" fill="#fafaf9"></path><path d="m3097.4 2455.3h-31.61v31.6h31.61v-31.6" fill="#dadbd8"></path><path d="m3149.5 2455.3h-31.6v31.6h31.6v-31.6" fill="#fafaf9"></path><path d="m3045.3 2407.7h-31.61v31.61h31.61v-31.61" fill="#fafaf9"></path><path d="m3097.4 2407.7h-31.61v31.61h31.61v-31.61" fill="#dadbd8"></path><path d="m3149.5 2407.7h-31.6v31.61h31.6v-31.61" fill="#fafaf9"></path><path d="m3045.3 2360.1h-31.61v31.6h31.61v-31.6" fill="#dadbd8"></path><path d="m3097.4 2360.1h-31.61v31.6h31.61v-31.6" fill="#fafaf9"></path><path d="m3149.5 2360.1h-31.6v31.6h31.6v-31.6" fill="#dadbd8"></path><path d="m3045.3 2312.5h-31.61v31.61h31.61v-31.61" fill="#fafaf9"></path><path d="m3097.4 2312.5h-31.61v31.61h31.61v-31.61" fill="#dadbd8"></path><path d="m3149.5 2312.5h-31.6v31.61h31.6v-31.61" fill="#fafaf9"></path><path d="m3045.3 2264.9h-31.61v31.61h31.61v-31.61" fill="#fafaf9"></path><path d="m3097.4 2264.9h-31.61v31.61h31.61v-31.61" fill="#fafaf9"></path><path d="m3149.5 2264.9h-31.6v31.61h31.6v-31.61" fill="#dadbd8"></path><path d="m3045.3 2217.3h-31.61v31.6h31.61v-31.6" fill="#dadbd8"></path><path d="m3097.4 2217.3h-31.61v31.6h31.61v-31.6" fill="#fafaf9"></path><path d="m3149.5 2217.3h-31.6v31.6h31.6v-31.6" fill="#fafaf9"></path><path d="m3045.3 2169.6h-31.61v31.61h31.61v-31.61" fill="#fafaf9"></path><path d="m3097.4 2169.6h-31.61v31.61h31.61v-31.61" fill="#dadbd8"></path><path d="m3149.5 2169.6h-31.6v31.61h31.6v-31.61" fill="#fafaf9"></path><path d="m3045.3 2122h-31.61v31.61h31.61v-31.61" fill="#fafaf9"></path><path d="m3097.4 2122h-31.61v31.61h31.61v-31.61" fill="#dadbd8"></path><path d="m3149.5 2122h-31.6v31.61h31.6v-31.61" fill="#fafaf9"></path><path d="m3045.3 2074.4h-31.61v31.61h31.61v-31.61" fill="#dadbd8"></path><path d="m3097.4 2074.4h-31.61v31.61h31.61v-31.61" fill="#fafaf9"></path><path d="m3149.5 2074.4h-31.6v31.61h31.6v-31.61" fill="#dadbd8"></path><path d="m3024.5 3178.1c-123.15 0-222.99 99.83-222.99 222.98 0 48.25 15.38 92.88 41.43 129.38-56.64-40.43-93.6-106.66-93.6-181.56 0-123.15 99.83-222.98 222.98-222.98 74.9 0 141.12 36.96 181.55 93.61-36.49-26.05-81.12-41.43-129.37-41.43" fill="#fff"></path><path d="m3260.2 3337.9c-1.43 0-2.6 133.18-2.6 297.44 0 164.31 1.17 297.47 2.6 297.47 1.44 0 2.61-133.16 2.61-297.47 0-164.26-1.17-297.44-2.61-297.44" fill="#000"></path><path d="m3238.6 3337.9c-1.44 0-2.6 133.18-2.6 297.44 0 164.31 1.16 297.47 2.6 297.47s2.61-133.16 2.61-297.47c0-164.26-1.17-297.44-2.61-297.44" fill="#000"></path><path d="m3368.7 3917.1h-1575.5l23.83 36.16h1517.5l34.17-36.16" fill="#dadbd8"></path><path d="m3368.7 3917.1c-2.83 2.91-11.92 12.3-34.62 35.74l0.45-0.2c-163.39-1.12-779.33-1.96-1517.5-1.98l2.17 1.17c-4.46-6.77-9.3-14.11-14.14-21.46-3.32-5.04-6.63-10.07-9.69-14.7l-2.17 4.03c870.61-1.44 1547-2.56 1575.5-2.6-28.5-0.05-704.91-1.17-1575.5-2.61h-4.84l2.67 4.04c3.05 4.64 6.36 9.67 9.68 14.71 4.85 7.35 9.68 14.68 14.14 21.45l0.77 1.17h1.41c738.19-0.02 1354.1-0.86 1517.5-1.98h0.27l0.18-0.2c22.12-23.99 30.97-33.6 33.72-36.58" fill="#000"></path><path d="m3368.7 3842.7h-1575.5l23.83 36.16h1517.5l34.17-36.16" fill="#dadbd8"></path><path d="m3368.7 3842.7c-2.83 2.91-11.92 12.3-34.62 35.74l0.45-0.2c-163.39-1.12-779.33-1.96-1517.5-1.98l2.17 1.16c-4.46-6.76-9.3-14.1-14.14-21.45-3.32-5.04-6.63-10.06-9.69-14.71l-2.17 4.04c870.61-1.44 1547-2.56 1575.5-2.6-28.5-0.05-704.91-1.17-1575.5-2.61h-4.84l2.67 4.04c3.05 4.64 6.36 9.67 9.68 14.7 4.85 7.36 9.68 14.69 14.14 21.46l0.77 1.17h1.41c738.19-0.02 1354.1-0.86 1517.5-1.98h0.27l0.18-0.19c22.12-24 30.97-33.61 33.72-36.59" fill="#000"></path><path d="m3368.7 3768.2h-1575.5l23.83 36.16h1517.5l34.17-36.16" fill="#dadbd8"></path><path d="m3368.7 3768.2c-2.83 2.91-11.92 12.3-34.62 35.74l0.45-0.19c-163.39-1.13-779.33-1.97-1517.5-1.99l2.17 1.17c-4.46-6.77-9.3-14.11-14.14-21.46-3.32-5.04-6.63-10.06-9.69-14.71l-2.17 4.04c870.61-1.44 1547-2.55 1575.5-2.6-28.5-0.05-704.91-1.17-1575.5-2.61h-4.84l2.67 4.04c3.05 4.64 6.36 9.67 9.68 14.71 4.85 7.35 9.68 14.68 14.14 21.46l0.77 1.17h1.41c738.19-0.02 1354.1-0.87 1517.5-1.99h0.27l0.18-0.19c22.12-24 30.97-33.61 33.72-36.59" fill="#000"></path><path d="m3368.7 3693.8h-1575.5l23.83 36.16h1517.5l34.17-36.16" fill="#dadbd8"></path><path d="m3368.7 3693.8c-2.83 2.91-11.92 12.3-34.62 35.74l0.45-0.19c-163.39-1.13-779.33-1.97-1517.5-1.99l2.17 1.17c-4.46-6.77-9.3-14.11-14.14-21.45-3.32-5.04-6.63-10.07-9.69-14.71l-2.17 4.03c870.61-1.44 1547-2.55 1575.5-2.6-28.5-0.05-704.91-1.17-1575.5-2.6l-4.84-0.01 2.67 4.04c3.05 4.64 6.36 9.67 9.68 14.71 4.85 7.35 9.68 14.68 14.14 21.46l0.77 1.17h1.41c738.19-0.02 1354.1-0.86 1517.5-1.99h0.27l0.18-0.19c22.12-24 30.97-33.61 33.72-36.59" fill="#000"></path><path d="m3368.7 3619.4h-1575.5l23.83 36.17h1517.5l34.17-36.17" fill="#dadbd8"></path><path d="m3368.7 3619.4c-2.83 2.91-11.92 12.3-34.62 35.74l0.45-0.19c-163.39-1.13-779.33-1.97-1517.5-1.99l2.17 1.17c-4.46-6.77-9.3-14.11-14.14-21.46-3.32-5.03-6.63-10.06-9.69-14.7l-2.17 4.03c870.61-1.43 1547-2.55 1575.5-2.6-28.5-0.04-704.91-1.16-1575.5-2.6l-4.84-0.01 2.67 4.04c3.05 4.64 6.36 9.67 9.68 14.71 4.85 7.35 9.68 14.68 14.14 21.46l0.77 1.17h1.41c738.19-0.02 1354.1-0.86 1517.5-1.99h0.27l0.18-0.19c22.12-24 30.97-33.61 33.72-36.59" fill="#000"></path><path d="m3368.7 3545h-1575.5l23.83 36.17h1517.5l34.17-36.17" fill="#dadbd8"></path><path d="m3368.7 3545c-2.83 2.92-11.92 12.3-34.62 35.74l0.45-0.19c-163.39-1.13-779.33-1.97-1517.5-1.99l2.17 1.17c-4.46-6.77-9.3-14.11-14.14-21.46-3.32-5.03-6.63-10.07-9.69-14.7l-2.17 4.03c870.61-1.43 1547-2.55 1575.5-2.6-28.5-0.05-704.91-1.16-1575.5-2.6l-4.84-0.01 2.67 4.05c3.05 4.63 6.36 9.66 9.68 14.7 4.85 7.35 9.68 14.68 14.14 21.46l0.77 1.17h1.41c738.19-0.02 1354.1-0.86 1517.5-1.99h0.27l0.18-0.19c22.12-24 30.97-33.61 33.72-36.59" fill="#000"></path><path d="m3368.7 3470.5h-1575.5l23.83 36.16h1517.5l34.17-36.16" fill="#dadbd8"></path><path d="m3368.7 3470.5c-2.83 2.92-11.92 12.3-34.62 35.74l0.45-0.19c-163.39-1.13-779.33-1.97-1517.5-1.99l2.17 1.17c-4.46-6.77-9.3-14.11-14.14-21.46-3.32-5.03-6.63-10.07-9.69-14.7l-2.17 4.04c870.61-1.44 1547-2.56 1575.5-2.61-28.5-0.05-704.91-1.16-1575.5-2.6l-4.84-0.01 2.67 4.05c3.05 4.63 6.36 9.66 9.68 14.7 4.85 7.35 9.68 14.69 14.14 21.46l0.77 1.17h1.41c738.19-0.02 1354.1-0.86 1517.5-1.99h0.27l0.18-0.19c22.12-24 30.97-33.61 33.72-36.59" fill="#000"></path><path d="m3368.7 3396.1h-1575.5l23.83 36.16h1517.5l34.17-36.16" fill="#dadbd8"></path><path d="m3368.7 3396.1c-2.83 2.92-11.92 12.3-34.62 35.74l0.45-0.19c-163.39-1.13-779.33-1.97-1517.5-1.99l2.17 1.17c-4.46-6.77-9.3-14.11-14.14-21.46-3.32-5.04-6.63-10.06-9.69-14.7l-2.17 4.04c870.61-1.45 1547-2.56 1575.5-2.61-28.5-0.05-704.91-1.16-1575.5-2.6l-4.84-0.01 2.67 4.05c3.05 4.63 6.36 9.66 9.68 14.7 4.85 7.35 9.68 14.69 14.14 21.45l0.77 1.18h1.41c738.19-0.02 1354.1-0.86 1517.5-1.98h0.27l0.18-0.2c22.12-24 30.97-33.61 33.72-36.59" fill="#000"></path><path d="m3368.7 3321.7h-1575.5l23.83 36.17h1517.5l34.17-36.17" fill="#dadbd8"></path><path d="m3368.7 3321.7c-2.83 2.91-11.92 12.3-34.62 35.74l0.45-0.19c-163.39-1.13-779.33-1.97-1517.5-1.99l2.17 1.17c-4.46-6.76-9.3-14.1-14.14-21.46-3.32-5.04-6.63-10.06-9.69-14.7l-2.17 4.04c870.61-1.44 1547-2.56 1575.5-2.61-28.5-0.04-704.91-1.16-1575.5-2.6l-4.84-0.01 2.67 4.04c3.05 4.64 6.36 9.67 9.68 14.71 4.85 7.35 9.68 14.69 14.14 21.46l0.77 1.17h1.41c738.19-0.02 1354.1-0.86 1517.5-1.98l0.27-0.01 0.18-0.19c22.12-23.99 30.97-33.61 33.72-36.59" fill="#000"></path><path d="m3380.4 1978.1h-1451.2v84.43h1451.2v-84.43" fill="#000"></path><path d="m3207.1 1978.1h-1451.2v84.43h1451.2v-84.43" fill="#33535f"></path><path d="m3366.2 3953.3h-1579.3v69.7h1579.3v-69.7" fill="#33535f"></path><path d="m3317.1 2724.1c-1.45 0-2.61 279.02-2.61 623.12 0 344.22 1.16 623.18 2.61 623.18 1.43 0 2.6-278.96 2.6-623.18 0-344.1-1.17-623.12-2.6-623.12" fill="#000"></path><path d="m3380.4 2062.2c0-1.43-363.55-2.6-811.91-2.6-448.51 0-811.98 1.17-811.98 2.6 0 1.44 363.47 2.61 811.98 2.61 448.36 0 811.91-1.17 811.91-2.61" fill="#000"></path><path d="m2805.1 3027.6 3.39-5.63c3.8-6.33 9.34-11.43 15.95-14.69l5.89-2.92-5.63-3.39c-6.32-3.8-11.42-9.34-14.69-15.96l-2.91-5.89-3.39 5.64c-3.81 6.32-9.35 11.42-15.96 14.69l-5.89 2.91 5.63 3.39c6.32 3.81 11.42 9.34 14.69 15.96l2.92 5.89" fill="#fff"></path><path d="m2725.4 3110.2 1.72-2.87c1.93-3.21 4.74-5.8 8.1-7.46l2.99-1.48-2.86-1.72c-3.21-1.93-5.8-4.75-7.46-8.11l-1.48-2.99-1.72 2.86c-1.93 3.21-4.75 5.8-8.11 7.46l-2.99 1.48 2.86 1.73c3.21 1.93 5.8 4.74 7.47 8.1l1.48 3" fill="#fff"></path><path d="m2995.4 3273.8 1.72-2.86c1.93-3.22 4.75-5.81 8.11-7.47l2.99-1.47-2.86-1.73c-3.22-1.93-5.8-4.74-7.46-8.1l-1.49-3-1.72 2.86c-1.93 3.22-4.74 5.81-8.1 7.47l-3 1.48 2.87 1.72c3.21 1.93 5.8 4.75 7.46 8.1l1.48 3" fill="#fff"></path><path d="m3080.6 2837.7 1.73-2.86c1.92-3.22 4.74-5.8 8.1-7.47l2.99-1.48-2.86-1.72c-3.21-1.93-5.8-4.74-7.46-8.1l-1.48-3-1.73 2.87c-1.93 3.21-4.74 5.8-8.1 7.46l-2.99 1.48 2.86 1.72c3.21 1.93 5.8 4.75 7.46 8.11l1.48 2.99" fill="#fff"></path><path d="m5616.8 1030.3c-93.02-108.43-102.86-225.55-139.96-335.21-60.61-179.14-93.4-361.67-59.32-547.68 48.12-51.082 148.03-48.019 232.4-37.992 83.47 9.922 174.11 4.551 264.07-0.82 71.46-4.27 142.49-8.527 209.18-5.137 31.14 1.59 56.81 14.43 79.86 35.43 36.76 33.469 35.15 90.297 37.47 139.96 10.7 228.52 159.49 425.92 219.74 646.62 3.48 12.711 6.39 27.281-0.87 38.281-6.71 10.149-19.78 13.629-31.71 16-126.1 25.049-256.11 13.418-384.6 9-122.06-4.199-248.14-0.992-360.92 44.689-15.4 6.23-32.29 8.19-48.51 4.6-7.16-1.58-13.63-4.02-16.83-7.74" fill="#33535f"></path><path d="m5756.2 707.97c-0.11 0.082 0.82 1.402 2.69 3.863 2.16 2.758 4.92 6.277 8.33 10.637 3.6 4.652 8.13 10.211 13.83 16.301 5.65 6.132 11.79 13.41 19.45 20.601 3.76 3.688 7.68 7.539 11.76 11.551 4.12 3.988 8.74 7.769 13.34 11.887 9.1 8.371 19.65 16.332 30.58 24.902 22.34 16.508 48.06 33.16 76.5 48 28.61 14.578 57.09 25.871 83.5 34.5 13.33 3.937 25.93 7.91 38.03 10.469 6.01 1.359 11.77 2.929 17.42 3.968 5.63 1 11.04 1.973 16.23 2.891 10.3 2.07 19.78 2.852 28.06 3.891 8.27 1.121 15.44 1.59 21.29 1.82 5.54 0.25 10 0.449 13.5 0.621 3.09 0.09 4.71 0.078 4.71-0.051 0.01-0.14-1.6-0.379-4.67-0.738-3.47-0.34-7.92-0.781-13.41-1.32-5.84-0.473-12.96-1.153-21.16-2.461-8.21-1.242-17.63-2.211-27.84-4.442-5.15-0.988-10.52-2.039-16.11-3.117-5.58-1.113-11.29-2.742-17.27-4.16-11.99-2.68-24.48-6.75-37.7-10.75-26.17-8.762-54.4-20.062-82.81-34.543-28.25-14.738-53.83-31.18-76.15-47.418-10.92-8.449-21.47-16.262-30.61-24.48-4.62-4.032-9.25-7.739-13.41-11.653-4.12-3.929-8.08-7.699-11.87-11.308-7.74-7.032-13.99-14.141-19.77-20.121-5.83-5.907-10.51-11.317-14.27-15.809-3.64-4.16-6.58-7.531-8.87-10.148-2.06-2.301-3.19-3.461-3.3-3.383" fill="#000"></path><path d="m5661.6 1039c-3.79 0.54-7.6 0.82-11.42 0.82-2.29 0-4.59-0.1-6.88-0.31l2.94 9.92c5.52-2.98 10.63-6.49 15.36-10.43" fill="#c3c5c2"></path><path d="m5509.5 114.77-30.4 3.179 56.89 173.51-43.71 238.26 151.01 509.83c2.29 0.21 4.59 0.31 6.88 0.31 3.82 0 7.63-0.28 11.42-0.82 26.98-22.48 41.24-59.149 45.64-94.708 5.17-41.793-0.54-84.152 1.07-126.23 1.61-42.071 12.14-86.622 42.94-115.33-91.6-68.04-149.04-179.92-150.96-294.01-0.82-48.774 7.89-97.672 2.71-146.17-5.18-48.508-21.99-128.82-93.49-147.82" fill="#263f48"></path><path d="m1582.5 1314.8 852.25 21.14c13.84 0.34 27.64-2.07 40.37-7.49 31.76-13.55 88.93-48.25 128.1-131.5 56.85-120.81 321.76-629.74 321.76-629.74l-267.94-137.3-328.59 609.54-1012.8 86.02 11.7 80.95 255.12 108.38" fill="#000"></path><path d="m2577.4 537.01 139.66-239.64 9.29-60.582c5.69-37.059 40.34-62.488 77.41-56.809l424.96 65.219c21.27 3.27 35.2 25.871 26.25 45.442-3.42 7.468-9.59 13.75-20.25 16.48-35.54 9.059-309.78 109.73-309.78 109.73l-114.38 229.05-233.16-108.89" fill="#e7e8e5"></path><path d="m2836.1 187.66c-0.9-0.238-3.16 8.309-9.53 20.77-6.27 12.41-17.4 28.621-34.09 41.722-16.7 13.11-35.09 20.059-48.64 23.207-13.62 3.223-22.45 3.391-22.43 4.313-0.04 0.629 8.91 1.91 23.22-0.402 14.19-2.219 33.77-8.891 51.33-22.68 17.56-13.77 28.69-31.199 34.22-44.461 5.65-13.348 6.53-22.359 5.92-22.469" fill="#000"></path><path d="m3122.5 228.9c-0.55-0.261-4.06 5.43-6.77 15.868-2.69 10.339-3.51 25.992 2.06 41.73 5.49 15.742 14.93 27.621 22.12 35.352 7.36 7.707 12.71 11.558 13.18 11.058 0.6-0.629-3.74-5.488-10.14-13.64-6.27-8.219-14.72-19.93-19.82-34.61-5.18-14.672-5.05-29.012-3.48-39.109 1.59-10.141 3.73-16.321 2.85-16.649" fill="#000"></path><path d="m2555.8 501.43 44.9-67.551c6.87-10.348 20.45-13.809 31.43-8.027l249.18 131.12c10.98 5.781 15.81 18.929 11.19 30.453l-29.41 73.207c-5.33 13.262-20.9 19.051-33.58 12.492l-264.67-136.77c-12.8-6.622-17.02-22.903-9.04-34.922" fill="#dadbd8"></path><path d="m2891.2 561.5c0.46-0.738-13.17-10.348-35.92-24.801-22.75-14.437-54.72-33.609-91.08-52.89-36.4-19.258-70.35-34.77-95.29-45-12.48-5.118-22.67-9.039-29.8-11.489-7.13-2.488-11.15-3.66-11.32-3.23-0.36 0.91 14.85 7.711 39.24 19 24.39 11.301 57.83 27.402 94.07 46.582 36.21 19.199 68.43 37.66 91.76 51.039 23.33 13.398 37.83 21.598 38.34 20.789" fill="#000"></path><path d="m2662.5 447.79c-0.68-1.488-25.84 15.91-40.82 49.223-15.34 33.16-11.99 63.558-10.42 63.097 2.07 0.133 1.81-28.871 16.45-60.347 14.17-31.68 36.25-50.492 34.79-51.973" fill="#000"></path><path d="m2755 487.76c-1.37-0.871-17.39 21.91-33.78 52.008-16.44 30.101-26.92 55.89-25.44 56.57 1.55 0.73 14.4-23.77 30.74-53.68 16.28-29.91 29.92-53.98 28.48-54.898" fill="#000"></path><path d="m2854.4 547.08c-2.02-0.562-6.64 29.328-29.03 57.379-21.92 28.43-49.84 40.031-48.82 41.859 0.28 0.719 7.61-1.101 18.27-6.941 10.62-5.789 24.23-16.18 35.76-30.84 11.48-14.68 18.34-30.367 21.43-42.07 3.14-11.727 3.15-19.289 2.39-19.387" fill="#000"></path><path d="m727.22 2239c-15.594 47.37-31.012 95.09-38.446 144.5-7.441 49.42-6.597 101.04 9.786 148.12 2.48 7.14 23.8 55.08 31.148 54.43 5.246-0.47-7.711-45.1-5-49.75 25.828-44.36 33.344-98.01 29.918-149.59-3.426-51.59-13.293-98.08-27.406-147.71" fill="#000"></path><path d="m863.4 1822.5c-75.382 0.67-136.41 63.19-137.39 140.71l-5.856 466.55c-5.453 125.29 60.891 232.98 182.81 235.12l11.277-0.48c113.5-4.83 204.4-98.44 208.85-215.19 4.14-108.61 7.37-228.68 4.33-286.73-6.27-120.17-123.95-133.9-123.95-133.9-0.26-0.01-0.32-27.89-0.26-63.2 0.15-79.34-62.685-143.57-139.82-142.88" fill="#d8766a"></path><path d="m1003.5 2028.6s-73.859-1.32-150.35 52.75c0 0 32.988-91.95 150.07-86.08l0.28 33.33" fill="#c9584e"></path><path d="m1080 2342.3c-0.05-9.08-7.57-16.52-16.79-16.64-9.21-0.11-16.64 7.13-16.59 16.22 0.05 9.08 7.57 16.53 16.78 16.65s16.66-7.15 16.6-16.23" fill="#000"></path><path d="m1096.1 2397.2c-2.16-2.15-14.41 8.01-32.38 8.73-17.94 0.98-31.51-7.97-33.36-5.62-0.92 1.04 1.35 5 7.26 9.05 5.82 4.04 15.63 7.8 26.82 7.27 11.19-0.54 20.43-5.17 25.67-9.74 5.35-4.6 7.05-8.73 5.99-9.69" fill="#000"></path><path d="m916.91 2342.3c-0.055-9.08-7.574-16.52-16.793-16.64-9.203-0.11-16.64 7.13-16.586 16.22 0.055 9.08 7.574 16.53 16.778 16.64 9.222 0.13 16.656-7.14 16.601-16.22" fill="#000"></path><path d="m919.84 2400.4c-2.16-2.16-14.442 8-32.395 8.72-17.929 0.98-31.5-7.97-33.359-5.62-0.914 1.04 1.332 4.99 7.269 9.04 5.821 4.05 15.625 7.8 26.817 7.28 11.187-0.54 20.429-5.18 25.668-9.74 5.332-4.6 7.051-8.73 6-9.68" fill="#000"></path><path d="m978.59 2255.6c-0.043 1.05 11.199 2.57 29.394 4.18 4.6 0.29 8.98 1.04 9.89 4.23 1.21 3.36-0.5 8.53-2.5 14.11-3.86 11.6-7.89 23.76-12.13 36.51-16.779 51.95-28.728 94.58-26.689 95.27 2.043 0.67 17.304-40.89 34.089-92.84 4.02-12.81 7.88-25.02 11.54-36.7 1.52-5.43 4.26-11.64 1.64-18.61-1.38-3.48-4.85-5.89-7.82-6.58-2.98-0.8-5.56-0.74-7.84-0.78-18.25-0.24-29.551 0.16-29.574 1.21" fill="#000"></path><path d="m927.98 2457.9c-2.632-4.62-19.863 1.09-41.07 2.46-21.18 1.81-39.027-1.26-40.98 3.7-0.852 2.35 2.906 6.45 10.527 9.95 7.559 3.5 19.07 6.01 31.781 5.08 12.707-0.98 23.746-5.18 30.727-9.77 7.051-4.6 10.187-9.22 9.015-11.42" fill="#000"></path><path d="m1099.1 2451.4c-3.85-4.09-18.37 0.66-35.96 1.35-17.57 1.21-32.57-1.95-35.89 2.54-1.44 2.17 1.01 6.31 7.62 10.11 6.51 3.79 17.33 6.74 29.42 6.09 12.08-0.66 22.46-4.75 28.47-9.22 6.11-4.48 8.04-8.86 6.34-10.87" fill="#000"></path><path d="m726.12 2340.3c-1.953 0.97-79.34 27.84-80.09-54.46-0.75-82.31 79.754-66.11 79.91-63.75 0.16 2.36 0.18 118.21 0.18 118.21" fill="#d8766a"></path><path d="m701.78 2253.5c-0.347 0.27-1.406-0.99-3.769-2.08-2.305-1.06-6.266-1.76-10.426-0.12-8.422 3.27-15.414 17.15-15.668 31.99-0.137 7.49 1.453 14.61 4.086 20.49 2.5 6 6.324 10.17 10.586 10.91 4.246 0.96 7.234-1.69 8.191-4.02 1.051-2.31 0.528-3.94 0.953-4.09 0.223-0.21 1.731 1.36 1.117 4.77-0.316 1.64-1.238 3.58-3.101 5.19-1.906 1.62-4.723 2.47-7.691 2.16-6.172-0.37-11.786-6.16-14.68-12.62-3.238-6.48-5.195-14.48-5.043-22.89 0.367-16.59 8.476-32.19 20.015-35.74 5.614-1.57 10.325 0.14 12.766 2.06 2.5 2.01 2.942 3.84 2.664 3.99" fill="#c9584e"></path><path d="m1071.4 2585.6c12.96 7.34-25.89 50.5-57.72 65.37-48.086 22.48-121.54 36.34-165.91 23.43-53.406-15.55-97.785-42.85-124.63-92.82-26.836-49.97-36.942-108.22-35.415-165.28 0.465-17.41 2.211-35.57 11.247-50.29 11.168-18.21 32.613-29.69 31.66-54.79-0.352-9.17 2.187-18.43 8.297-25.13 14.632-16.03 32.558-0.99 40.8 14.1 17.606 32.23 19.59 70.72 21.153 107.66 1.113 26.25 2.16 53.06-5.02 78.28-3.906 13.72-10.191 26.69-13.355 40.61-3.16 13.92-2.746 29.72 5.691 41.09 1.375 1.85 3.641 4.18 6.508 6.76 22.672 20.42 54.402 26.52 82.809 16.17 45.058-16.43 122.01-40.96 142.12-25.24 28.93 22.61 35.85 37.37 35.85 37.37l15.91-17.29" fill="#000"></path><path d="m981.71 2201.8c0.488-1.24-3.219-4.34-10.648-5.96-7.293-1.65-18.512-1.22-28.977 4.55-10.457 5.74-16.898 14.81-19.574 21.76-2.77 7.04-2.36 11.82-1.055 12.14 2.777 0.93 8.758-15.6 25.633-24.77 16.805-9.36 33.82-4.94 34.621-7.72" fill="#000"></path><path d="m1055.4 1121.3-376.3 82.75-241.52 599.35s-323.21-71.69-376.56-252.27c-46.129-156.13-141.35-846.11 75.109-1271.5 55.664-109.39 169.09-177.29 291.82-177.29h1646.5c207.87 0 382.65 156.21 405.73 362.81 9.3 83.301 15.76 162.41 14.46 213.86l-264.37 202.96-1174.9 239.3" fill="#33535f"></path><path d="m818.93 1919.9c0-10.89 85.578-46.15 124.28-30.7 58.869 23.51 58.389 62.46 58.389 62.46l25.84-27.22 327.74-499.31 243.6-160.78-389.93-123.47-408.67 469.54 18.758 309.48" fill="#f3f2f1"></path><path d="m715.64 2087.6-8.614-16.08-38.875-72.57-161.89-103.23 332.86-395.62 151.97-359.14 364.09-113.98s-173.24 266.43-227.06 402.57c-53.83 136.13-59.34 129.82-108.43 229.56-47.002 95.49-88.975 216.37-88.975 216.37l-215.07 212.12" fill="#3b5998"></path><path d="m1495.5 1375 131.92-110.6-305.8 126.33-191.67 268.35s-68.31 151.5-91.78 205.76c-24.69 57.1-37.65 89.48-37.65 89.48l1.32 41.56 89.8-83.81 80.76-24.07 134.87-213.2 188.23-299.8" fill="#3b5998"></path><path d="m1535.4 1871.3 5.55 86.15-1.86 110.04-14.23 91.97s-4.26 9.13-16.03 2.75c-11.77-6.37-3.55-56.57-3.55-56.57l0.47-37.54s-7.78-28.69-9.86-26.18-7.53 53.36-7.53 53.36l-17.08 109.41s-4.57 11.88-18.08 8.14c-7.49-2.07-12.71-12.69-12.35-28.83 0.35-16.14 6.41-43.56 6.83-52.73 0.41-9.18 4.58-62.23 4.58-62.23l-32.4 122.84s-5.41 39.78-22.08 34.68c-16.68-5.11-6.68-33.87-6.37-46.16s21.24-95.87 18.43-118.87c-2.82-23-6.08-11.34-6.08-11.34s-8.2 38.41-14.67 68.7c-6.46 30.29-17.21 48.08-30.13 50.72-12.92 2.65 2.06-67.52 2.06-67.52l18.59-97.99-6.57-30.74-20.68 28.61s0.65 36.5-21.61 52.52c-22.61 16.28-28.74-0.87-28.74-0.87l37.5-142.71c9.24-23.44 76.8-62.83 76.8-62.83l5.6-142.83s141.45-1.8 144.93 2.46c3.48 4.27-31.44 163.59-31.44 163.59" fill="#d8766a"></path><path d="m1486.4 1924.1c-0.75-0.67-7.34 6.51-18.73 16.89-11.24 9.98-29.08 23.97-52.16 23.75-10.16-0.01-19.72-3.12-26.49-8.59l-2.48-2.01-2.01 2.85c-8.84 12.56-18.42 23.58-24.07 31.49-5.95 7.87-8.83 13.14-8.14 13.53 0.52 0.27 4.22-3.97 10.98-11.2 6.62-7.52 16.13-16.98 26.43-30.86l-4.49 0.83c7.74 6.64 18.87 10.36 30.23 10.35 12.61 0.13 24.33-3.88 33.49-9.32 9.24-5.42 16.33-11.9 21.84-17.55 10.88-11.52 16.17-19.66 15.6-20.16" fill="#c9584e"></path><path d="m1156.1 1892.8s113.27-13.71 172.58-142.51c26.31-57.14 87.9-138.89 87.9-138.89l-9.5 156.19h167.33s25.95-308.72 19.2-327.51c-6.76-18.81-93.66-110.08-93.66-110.08l-189.34 134.23-154.51 428.57" fill="#3b5998"></path><path d="m1698.4 1759.7-183.91-306.43 192.59 5.71 169.83 283.89c6.53 10.91-1.33 24.77-14.03 24.77h-150.45c-5.75 0-11.07-3.02-14.03-7.94" fill="#000"></path><path d="m991.09 1413.2 460.3 54.8 77.42 135.49 60.59 33.32c10.27 5.64 22.88 4.84 32.35-2.07l5.7-4.16 60.07 5.81 46.45-27.1v-27.09l-49.01 9.01-47.38-15.45s30.59-3.24 34.46-26.47c3.86-23.23-11.62-23.7-11.62-23.7s7.75-40.17 9.68-45.97c1.94-5.81 9.68-39.92-5.81-66.42-15.48-26.49-170.32-67.14-170.32-67.14l-502.88-205.13v272.27" fill="#d8766a"></path><path d="m516.18 1903.9c-9.504-6.32-142.48-98.14-123.48-243.77 18.992-145.64 307.11-474.91 367.25-481.24l231.12-37.99v272.27l-110.81 6.34-145.64 284.94-218.45 199.45" fill="#3b5998"></path><path d="m2495.5 546.76c-2.25 1.179-4.51 2.379-6.76 3.578 4.35 50.281 6.78 95.32 5.93 128.71l-264.37 202.96-162.65 33.129 116.42 48.5 300.43-213.81 11-20.41v-182.66" fill="#a7a9a8"></path><path d="m2495.5 729.42-11 20.41 11-7.832v-12.578" fill="#0f191d"></path><path d="m2488.8 550.34c-165.88 88.609-312.48 213.09-426.78 362.43l5.69 2.371 162.65-33.129 264.37-202.96c0.85-33.391-1.58-78.43-5.93-128.71" fill="#20353d"></path><path d="m1293.2 1192.2s901.8 90.37 945.6 86.75c80.89-6.67 239.46-148.36 504.11-326.03 219.55-147.39 370.26-305.01 370.26-305.01l-84.56-193.12s-622.08 223.38-697.88 289.71c-75.8 66.329-227.73 163.45-227.73 163.45l-326.56-6.219-258.51-22.801c-129.61-11.43-256.07 44.231-335.18 147.55l-100.37 131.09 210.82 34.63" fill="#000"></path><path d="m991.09 1426.4c0-0.25-2.883-0.52-8.277-0.81-6.172-0.24-13.926-0.53-23.336-0.89-21.004-0.46-49.328-1.09-82.782-1.83l-1.168-0.02-0.718 0.96c-17.387 23.37-37.356 50.2-58.543 78.68-34.899 47.2-66.25 90.09-88.735 121.29-10.757 15.12-19.66 27.62-26.414 37.11-6.14 8.83-9.398 13.82-9.109 14.02 0.289 0.22 4.101-4.35 10.742-12.82 7.094-9.24 16.442-21.41 27.742-36.12 23.242-30.65 55.067-73.19 89.961-120.38 21.016-28.61 40.821-55.56 58.067-79.04l-1.875 0.94c33.457-0.03 61.797-0.05 82.804-0.06 9.414-0.17 17.172-0.29 23.348-0.4 5.398-0.17 8.289-0.38 8.293-0.63" fill="#000"></path><path d="m934.87 1839.4c-0.242-0.1-1.808 2.77-4.523 8.26-2.985 6.23-6.782 14.17-11.422 23.87l2.469-0.25c-6.946-9.97-14.665-22.85-22.305-38.44-7.668-15.52-16.348-33.53-28.973-51.01l-1.859-2.58-2.004 2.48c-14.965 18.44-32.082 38.1-50.512 58.18-40.355 43.89-78.879 81.81-106.4 109.61-13.242 13.48-24.192 24.62-32.477 33.06-7.57 7.9-11.633 12.39-11.383 12.65 0.254 0.26 4.801-3.75 12.805-11.21 8.582-8.13 19.922-18.88 33.637-31.87 28.179-27.14 67.16-64.68 107.66-108.71 18.492-20.15 35.594-39.99 50.457-58.67l-3.867-0.1c12.535 17.03 21.281 34.54 29.308 50.03 7.993 15.52 16.215 28.44 23.59 38.25l1.516 2.02 0.949-2.28c4.145-9.92 7.539-18.04 10.199-24.42 2.278-5.67 3.375-8.76 3.137-8.87" fill="#000"></path><path d="m1092.5 1909c0.41 0.19 3.29-4.64 6.98-13.7 3.76-9.03 7.67-22.44 12.1-38.31l3.13-11.23-7.18 9.26c-8.84 11.4-20.73 23.53-33.98 35.8-10.69 9.87-21.21 18.95-30.74 27.25l3.92 1.51c-2.38-18.28-0.91-34.39-1.44-45.72-0.26-11.39-1.76-17.96-2.24-17.88-0.58 0.08-0.1 6.63-0.67 17.85-0.28 11.21-2.47 27.2-0.4 46.38l0.48 4.39 3.45-2.88c9.72-8.1 20.38-17.11 31.18-27.08 13.37-12.38 25.32-24.88 34.11-36.87l-4.05-1.98c-4.02 16.08-7.24 29.42-10.22 38.6-2.89 9.19-4.92 14.39-4.43 14.61" fill="#000"></path><path d="m1966.8 907.84c-19.34 91.781-58.9 185.69-137.16 237.37-59.39 39.22-132.86 48.92-203.5 57.6-492.55 60.57-985.1 121.14-1477.6 181.71-13.222-232.88 86.414-522.7 188.1-732.63 15.777-32.571 34.055-65.899 64.273-85.809 36.836-24.273 84.051-24.062 128.15-22.941 497.05 12.668 994.34 33.8 1488.6 88.218-27.81 89.571-31.44 184.71-50.78 276.48" fill="#33535f"></path><path d="m2103 907.93s1.48-0.848 4.27-2.719c2.9-1.949 7-4.719 12.35-8.352 10.95-7.55 26.91-18.57 47.6-32.847 41.33-29.012 102.07-70.68 176.48-126.06 4.67-3.39 9.12-7.41 14.15-10.418 5-3.07 10.06-6.172 15.18-9.32 10.9-5.371 21.84-11.231 33.4-16.57 11.58-5.289 23.41-10.692 35.49-16.219 12.2-5.293 24.64-10.692 37.32-16.203 50.9-21.66 105.99-44.328 164.79-67.789 117.55-46.961 249.52-98.032 391.93-151.82l-3.17-1.398c24.88 61.969 51.11 127.29 78 194.25l0.56-2.762c-34.03 34.121-70.27 70.453-107.04 107.32l0.15-0.141c-25.1 21.41-52.07 44.18-79.65 66.66-175.98 144.04-353.42 267.21-514.11 370.79l-0.12 0.09-0.16 0.14c-24.52 20.76-50.94 38.64-77.87 53.83-26.98 15.12-54.83 27.51-83.23 35.52-7.12 1.91-14.29 3.42-21.36 5.13-7.19 1.09-14.33 2.16-21.43 3.23-7.16 0.38-14.27 0.75-21.34 1.12-7.14 0.01-14.25 0.02-21.3 0.04-28.21 0.04-55.65 0.07-82.27 0.1-106.45 0.22-199.79 0.4-277 0.56-77.04 0.28-137.94 0.51-179.75 0.66-20.72 0.16-36.68 0.29-47.64 0.37-5.29 0.08-9.35 0.14-12.24 0.19-2.75 0.06-4.15 0.2-4.15 0.2s1.4 0.12 4.15 0.19c2.89 0.04 6.95 0.11 12.24 0.19 10.96 0.09 26.92 0.2 47.64 0.37 41.81 0.15 102.7 0.38 179.75 0.66 77.2 0.16 170.55 0.33 276.99 0.55 26.62 0.04 54.06 0.08 82.27 0.12 7.05 0 14.15 0.01 21.31 0.01 7.21-0.36 14.46-0.72 21.77-1.08 7.23-1.07 14.51-2.16 21.82-3.24 7.19-1.72 14.49-3.24 21.71-5.16 28.85-8.07 57.02-20.53 84.29-35.76 27.26-15.31 53.78-33.17 78.77-54.27l-0.29 0.22c160.96-103.4 338.67-226.53 514.86-370.73 27.6-22.512 54.6-45.32 79.72-66.762l0.08-0.058 0.07-0.082c36.75-36.871 72.98-73.231 107-107.36l1.19-1.199-0.63-1.57c-26.95-66.942-53.23-132.24-78.16-194.18l-0.91-2.25-2.26 0.848c-142.4 53.961-274.28 105.28-391.76 152.56-58.75 23.598-113.81 46.438-164.68 68.301-12.68 5.559-25.11 11-37.3 16.348-12.09 5.57-23.93 11.039-35.51 16.379-11.56 5.402-22.58 11.363-33.49 16.812-5.24 3.238-10.41 6.449-15.52 9.609-5.15 3.141-9.46 7.079-14.13 10.52-74.05 55.641-134.55 97.73-175.56 127.15-20.48 14.567-36.29 25.809-47.13 33.508-5.25 3.781-9.27 6.66-12.11 8.699-2.71 1.973-4.03 3.071-4.03 3.071" fill="#33535f"></path><path d="m692 1317.7c-0.043-0.36-6.242 0.05-17.406 1.12-12.008 1.3-27.938 3.02-47.219 5.1-39.832 4.59-94.809 11.39-155.42 19.77-60.633 8.36-115.41 16.75-154.92 23.67-19.754 3.5-35.719 6.42-46.687 8.83-10.973 2.34-17.004 3.8-16.938 4.15 0.07 0.36 6.231-0.43 17.305-2.16 11.929-1.82 27.75-4.25 46.91-7.18 39.625-5.99 94.441-13.79 155.04-22.15 60.191-8.26 114.65-15.73 155.17-21.28 19.195-2.76 35.047-5.02 47-6.74 11.09-1.68 17.203-2.77 17.16-3.13" fill="#000"></path><path d="m1427.2 1465.1c-0.26-0.26-4.15 3.37-10.96 10.12-7.4 7.52-16.98 17.26-28.49 28.95-11.9 12.51-26.15 26.54-41.67 43.85-7.14 9.11-13.42 19.13-20.86 28.88-7.67 10.07-13.52 21.65-19.24 33.52-11.06 23.95-19.35 47.57-26.88 68.96-7.46 21.44-14.05 40.75-20.15 56.72-6.1 15.98-11.54 28.7-15.84 37.23-4.28 8.51-6.99 13.08-6.61 13.34 0.15 0.1 0.98-0.95 2.43-3.03 1.37-2.12 3.72-5.1 5.97-9.35 4.9-8.32 10.9-20.94 17.48-36.83 6.57-15.91 13.53-35.15 21.24-56.47 7.77-21.28 16.18-44.75 27.07-68.35 5.62-11.67 11.35-23.06 18.62-32.69 7.47-9.91 13.79-20.16 20.55-28.98 14.54-16.6 29.13-31.59 40.53-44.22 11.04-12.17 20.22-22.3 27.32-30.13 6.36-7.19 9.75-11.28 9.49-11.52" fill="#000"></path><path d="m1464 1513.2c-1.3-0.6-15.56 27.42-31.85 62.58-16.29 35.18-28.42 64.17-27.12 64.78 1.3 0.6 15.56-27.42 31.85-62.59 16.28-35.16 28.43-64.16 27.12-64.77" fill="#000"></path><path d="m699.62 102.39c-0.078-0.039-0.601 0.918-1.535 2.828-1.027 2.172-2.356 4.992-4.031 8.543-3.586 7.867-8.625 18.929-15.051 33.047-3.246 7.211-6.84 15.211-10.762 23.941-3.742 8.832-7.375 18.602-11.508 29.012-7.988 20.929-18.007 44.449-26.464 71.367-4.489 13.391-9.184 27.391-14.079 41.992-4.828 14.621-8.753 30.168-13.418 46.09-9.707 31.75-17.253 66.398-25.773 102.73-15.223 73.028-27.793 154.24-34.098 240.17-5.601 85.993-4.351 168.19 0.661 242.63 3.441 37.156 6.132 72.518 11.375 105.32 2.421 16.4 4.179 32.34 6.941 47.5 2.836 15.12 5.555 29.65 8.156 43.52 4.676 27.83 11.352 52.5 16.387 74.33 2.656 10.88 4.906 21.06 7.402 30.33 2.68 9.18 5.141 17.59 7.364 25.2 4.417 14.85 7.89 26.5 10.355 34.79 1.168 3.74 2.098 6.71 2.82 9.01 0.657 2.02 1.039 3.04 1.125 3.01 0.09-0.02-0.125-1.09-0.617-3.17-0.594-2.34-1.359-5.35-2.324-9.15-2.238-8.34-5.391-20.08-9.406-35.04-2.086-7.63-4.395-16.07-6.914-25.27-2.348-9.29-4.454-19.5-6.973-30.38-4.754-21.86-11.172-46.53-15.602-74.35-2.488-13.86-5.097-28.37-7.812-43.49-2.649-15.12-4.297-31.04-6.625-47.42-5.043-32.73-7.563-68.019-10.867-105.08-4.735-74.246-5.832-156.2-0.25-241.93 6.285-85.66 18.675-166.65 33.593-239.53 8.375-36.25 15.739-70.851 25.243-102.57 4.562-15.91 8.379-31.449 13.097-46.062 4.77-14.59 9.352-28.61 13.727-42 8.215-26.938 17.972-50.489 25.687-71.477 4-10.453 7.489-20.262 11.094-29.133 3.766-8.777 7.211-16.828 10.328-24.09 6.039-14.257 10.774-25.461 14.145-33.418 1.472-3.632 2.652-6.519 3.558-8.75 0.778-1.98 1.133-3.019 1.051-3.05" fill="#000"></path><path d="m683.99 571.75c-0.066-1.441-26.109-1.391-58.16 0.09-32.062 1.5-57.988 3.871-57.922 5.308 0.07 1.434 26.106 1.391 58.164-0.097 32.055-1.492 57.985-3.86 57.918-5.301" fill="#000"></path><path d="m670.5 504.29c-0.183-1.289-27.891 2.641-59.664 15.59-31.848 12.801-54.488 29.25-53.715 30.301 0.828 1.332 24.367-12.899 55.672-25.461 31.223-12.75 58.039-18.887 57.707-20.43" fill="#000"></path><path d="m541.11 968.1c0.617-1.172-15.957-9.633-38.468-11.711-22.508-2.25-40.387 2.898-40.008 4.16 0.273 1.539 17.91-1.172 39.508 1.008 21.609 1.98 38.414 8 38.968 6.543" fill="#000"></path><path d="m570.6 990.38c0.379-1.25-19.914-4.32-42.39 5.351-22.586 9.42-34.496 26.13-33.336 26.74 1.137 1.13 14.094-13.12 35.367-21.94 21.133-9.139 40.383-8.55 40.359-10.151" fill="#000"></path><path d="m2837.1 525.96 249.88-120.38 41.63-44.992c25.46-27.52 68.41-29.188 95.93-3.731l315.61 291.98c15.79 14.609 14.68 41.14-3.69 52.34-7.02 4.269-15.65 6.031-26 2.312-34.53-12.39-318.12-82.512-318.12-82.512l-223.01 125.75-132.23-220.77" fill="#e7e8e5"></path><path d="m3247 381.32c-0.61-0.711-7.27 5.102-19.52 11.86-12.15 6.781-30.44 13.992-51.61 15.492-21.18 1.508-40.31-3.024-53.3-8-13.08-4.953-20.5-9.762-21-8.981-0.38 0.5 6.32 6.571 19.47 12.661 13.01 6.109 32.96 11.546 55.23 9.957 22.26-1.598 41.25-9.797 53.25-17.688 12.15-7.91 17.92-14.871 17.48-15.301" fill="#000"></path><path d="m3461.2 575.8c-0.32-0.52-6.41 2.25-14.5 9.371-8.01 7.058-17.46 19.57-21.66 35.726-4.26 16.122-3.09 31.25-1.46 41.684 1.79 10.488 4.06 16.68 4.73 16.527 0.85-0.179-0.02-6.64-0.76-16.98-0.6-10.309-1.04-24.75 2.94-39.77 3.93-15.058 12.07-26.859 19.02-34.347 7-7.512 12.23-11.442 11.69-12.211" fill="#000"></path><path d="m2839.1 484.38 75.03-30.84c11.49-4.707 24.68 0.012 30.54 10.953l133.05 248.16c5.87 10.93 2.51 24.539-7.77 31.489l-65.37 44.199c-11.82 8-27.97 4.07-34.81-8.461l-142.72-261.51c-6.9-12.652-1.29-28.512 12.05-33.992" fill="#dadbd8"></path><path d="m3083.4 721.93c0.8-0.36-5.12-15.95-15.88-40.66-10.77-24.7-26.52-58.489-45.85-94.829-19.38-36.332-38.82-68.179-53.76-90.632-7.48-11.219-13.72-20.18-18.26-26.2-4.52-6.05-7.19-9.269-7.57-9.007-0.81 0.55 7.99 14.699 21.87 37.707 13.88 23.023 32.59 55.082 51.87 91.261 19.26 36.172 35.61 69.52 47.45 93.672 11.83 24.149 19.26 39.067 20.13 38.688" fill="#000"></path><path d="m2957.5 499.63c0.27-1.609-30.32-1.277-61.38 17.941-31.28 18.879-45.52 45.942-43.97 46.442 1.66 1.269 17.67-22.91 47.42-40.793 29.48-18.317 58.31-21.539 57.93-23.59" fill="#000"></path><path d="m3011.8 584.59c-0.64-1.5-26.66 8.422-57.1 24.191-30.48 15.719-53.6 31.231-52.75 32.621 0.88 1.457 25.24-11.64 55.52-27.261 30.25-15.672 55.02-27.989 54.33-29.551" fill="#000"></path><path d="m3060.9 689.34c-1.36-1.59-21.92 20.59-56.17 31.289-34.08 11.293-63.71 5.269-63.89 7.363-0.17 0.746 6.92 3.36 19.01 4.469 12.05 1.148 29.15 0.168 46.91-5.52 17.73-5.742 32.2-14.902 41.31-22.871 9.17-7.961 13.41-14.218 12.83-14.73" fill="#000"></path></g></g></svg>
