<svg viewBox="0 0 943.09 568.09" xmlns="http://www.w3.org/2000/svg" style="width: 100%; max-height: 200px; margin-top: 20px; margin-bottom: 16px;"><g transform="matrix(1.3333 0 0 -1.3333 0 568.09)"><g transform="scale(.1)"><path d="m6166 1065.8c-43.66 27.42-93.68 44.64-144.97 49.9-23.69 2.43-49.57 1.74-68.57-12.61-4.04-3.04-7.97-7.54-7.06-12.51 0.66-3.67 3.75-6.32 6.71-8.58 58.98-44.99 148.2-50.67 213.89-16.2" fill="#dadbd8"></path><path d="m6162.3 1069.9c-32.82 25.62-65.83 51.41-93.63 82.38-27.8 30.99-50.4 67.78-58.7 108.57-2.52 12.37-3.3 26.51 4.64 36.33 74.62-58.29 133.26-133.68 147.69-227.28" fill="#dadbd8"></path><path d="m6165.2 1066.4c-5.62 40.83-7.65 82.79 1.73 122.93 9.37 40.13 31.21 78.55 65.49 101.44 12.9-30.15 7.35-64.87-1.74-96.38-14.04-48.69-36.07-95.05-64.93-136.7" fill="#dadbd8"></path><path d="m6238.4 935.25c-44.41-5.398-83.09-28.809-116.26-58.84-33.16-30.019-56.73-70.488-66.5-114.16 43.57 2.691 80.53 33.41 107.33 67.871 26.81 34.438 45.38 72.238 74.83 104.46" fill="#dadbd8"></path><path d="m6254.3 914.29c-35.77 88.111-22.81 194.29 33.11 271.23 25.3-90.01 16.01-191.68-33.11-271.23" fill="#dadbd8"></path><path d="m6351 799.17c-40.3 2.508-81.29-7.102-116.29-27.25-35-20.141-63.88-50.762-81.96-86.871-2.46-4.899-4.63-11.149-1.34-15.551 2.86-3.82 8.39-4.168 13.16-3.871 39.06 2.543 73.7 26.051 102.26 52.82 28.58 26.762 53.47 57.692 85.05 80.84" fill="#dadbd8"></path><path d="m6347.9 805.44c-20.79 66.528-22.08 139.03-3.68 206.26 7.26 26.55 19.46 54.5 44.01 66.95 2.1 1.07 4.54 2.01 6.74 1.18 2.09-0.78 3.29-2.92 4.26-4.93 8.73-18.24 11.27-38.96 10.38-59.17-0.91-20.21-5.1-40.121-9.28-59.898-7.74-36.621-11.85-75.973-31.92-107.54-4.77-7.488-8.97-15.59-12.77-23.609-3.81-8.032-3.84-10.848-7.31-17.239" fill="#dadbd8"></path><path d="m6603.8 767.31c-18.96 72.121 1.17 159.55 46.61 218.67 3.35 4.352 7.78 9.02 13.25 8.512 8.37-0.773 10.54-11.922 10.16-20.32-3.29-73.692-27.87-146.32-70.02-206.86" fill="#dadbd8"></path><path d="m6626.8 751.54c87.62-22.789 188.13-0.629 261.01 53.09-43.2 21.883-94.1 28.133-141.3 17.34-47.2-10.797-90.33-31.938-119.71-70.43" fill="#dadbd8"></path><path d="m6646.3 799.56c49.08 80 143.15 132.23 236.89 136.97-10.8-38.121-42.13-67.75-77.48-85.652-35.35-17.91-74.81-25.707-113.71-33.258-15.13-2.941-35.88-6.172-45.7-18.062" fill="#dadbd8"></path><path d="m6608.7 1032.6c13.28 45.51 26.64 91.44 30.29 138.73 3.65 47.27-3.09 96.64-27.63 137.21-45.84-88.69-50.47-192.32-4.04-280.7" fill="#dadbd8"></path><path d="m6763 1110.6c53.61 97.41 162.96 175.23 273.63 186.14-42.69-106.29-159.1-188.43-273.63-186.14" fill="#dadbd8"></path><path d="m6729.2 1091.5c79.95-12.17 148.05-63.24 222.76-94.189 15.97-6.621 33.21-11.89 50.36-9.629 17.15 2.239 34.06 13.748 37.91 30.598 3.18 14-3.18 28.87-13.23 39.13s-23.32 16.66-36.58 22.19c-81.37 33.87-168.63 34.72-254.34 14.17" fill="#dadbd8"></path><path d="m6683 1035.4c18.1-5.18 24.28-14.55 38.62-26.76 48.62-41.398 106.93-71.37 168.91-86.769 6.46-1.609 14.93-2.242 18.12 3.59 2.79 5.098-0.74 11.258-4.37 15.801-25.97 32.488-63.01 54.718-101.99 69.228-38.98 14.52-72.76 32.02-119.29 28.26" fill="#dadbd8"></path><path d="m6630.8 1374c65.01-60.68 156.57-91.83 245.09-83.39 4.03 0.38 8.41 1.03 11.16 4.01 6.16 6.71-1.24 17.07-8.43 22.67-72.05 56.17-159.34 79.47-247.82 56.71" fill="#dadbd8"></path><path d="m6692.7 1396.7c85.93 64.42 203.76 83.87 305.83 50.46-38.51-37.96-91.95-58.38-145.73-63.98-53.79-5.6-107.65 0.36-160.1 13.52" fill="#dadbd8"></path><path d="m6668.1 1552.3c-7.08 71.92-2.48 128.69-7.48 200.95-0.39 5.77-1.63 12.73-7.03 14.81-7.52 2.89-13.79-6.35-16.26-14.03-21.42-66.61-9.71-143.01 30.66-200.14" fill="#dadbd8"></path><path d="m6662.9 1544.4c48.75 30.15 85.32 69.52 119.14 115.8 23.53 32.19 43.37 70.77 38.01 110.29-33.03 0.65-64.44-17.57-85.93-42.68-21.5-25.11-34.27-56.5-43.81-88.14-9.54-31.65-16.22-64.17-27.41-95.27" fill="#dadbd8"></path><path d="m6780 1576.9c106.98 39.56 206.79 98.42 293.2 172.88-35.03 14.12-75.13 5.67-110.14-8.46-80-32.3-145.36-86.8-184.59-163.64" fill="#dadbd8"></path><path d="m6695.8 1505c54.13-5.92 109.11-9.78 162.81-0.8 52.78 8.83 102.66 29.74 151.98 50.51 4.08 1.71 8.54 3.77 10.32 7.84 1.95 4.4-0.12 9.76-3.7 13-3.56 3.23-8.32 4.77-12.96 6.07-53.62 15-111.48 7.98-164.24-9.81-52.76-17.8-96.02-38.93-144.21-66.81" fill="#dadbd8"></path><path d="m6386.8 1371.6c-36.92 74.54-34.52 161.52-2.62 238.34 22.45-34.21 25.19-77.78 21.09-118.51-4.11-40.71-16.5-82.62-17.3-123.53" fill="#dadbd8"></path><path d="m6239.2 1446c-92.19 1.75-184.42-37.53-247.03-105.24 46.02-7.23 93.41 4.64 135.27 25.08 41.85 20.44 79.05 49.11 115.91 77.58" fill="#dadbd8"></path><path d="m6140.1 1479.2c-45.1 3.66-88.5 9.24-131.87-4.04-43.36-13.29-82.83-43.46-100.51-85.23 42.19-4.75 84.96 5.82 123.63 23.34 38.67 17.53 73.83 41.8 108.75 65.93" fill="#dadbd8"></path><path d="m6286.9 1477.6c-40.58 26.58-82.25 53.65-129.49 64.66-47.24 11.02-101.99 2.87-134.93-32.73 38.24-22.44 84.64-25.09 128.98-25.06 44.35 0.04 98.7 0.54 140.51-14.26" fill="#dadbd8"></path><path d="m6287.2 1475.5c-69.36 68.11-95.66 190.48-67.75 283.6 54.53-82.84 78.95-185.05 67.75-283.6" fill="#dadbd8"></path><path d="m6477.9 1668.5c13.08 30.41 22.28 62.33 34.02 93.29 11.73 30.95 26.32 61.42 48.5 86 22.17 24.58 52.85 42.88 85.91 44.52-20.7-93.72-82.95-177.47-166.73-224.3" fill="#dadbd8"></path><path d="m6443.4 1628.3c-21.66 29.8-46.67 70.24-76.03 92.49-29.36 22.24-67.59 35.7-103.42 27.16 36.45-65.14 105.3-111.06 179.45-119.65" fill="#dadbd8"></path><path d="m6450.3 1666c-14.19 36.06-28.49 72.5-34.23 110.83-5.73 38.32-2.25 79.24 17.35 112.68 38.08-71.98 50.35-149.25 18.81-224.33" fill="#dadbd8"></path><path d="m6478.2 1889.5c21.56 71.35 86.9 123.89 157.44 148 8.89 3.04 18.31 5.57 27.6 4.13s18.4-7.78 20.35-16.98c2.57-12.13-7.45-23.01-16.89-31.08-54.93-46.96-119.49-82.61-188.5-104.07" fill="#dadbd8"></path><path d="m6479 1947.9c2.73 46.01 5.61 92.68 20.58 136.27 14.96 43.59 43.79 84.48 85.75 103.56 7.14-46.47-13.36-92.69-38.09-132.68-24.72-39.98-54.52-77.73-69.37-122.33" fill="#dadbd8"></path><path d="m6477.9 1916.2c-17.83 52-19.67 118.06-50.81 163.36-21.77 31.67-56.62 53.24-75.37 86.78-12.47-31.33-8.66-67.42 4.38-98.52 13.03-31.09 34.56-57.86 57.6-82.46 23.04-24.61 42.77-43.12 64.2-69.16" fill="#dadbd8"></path><path d="m6478.2 384.8c-1.39 0-2.59 346.9-2.69 774.72-0.09 427.97 0.95 774.8 2.34 774.8 1.38 0 2.58-346.83 2.68-774.8 0.1-427.82-0.94-774.72-2.33-774.72" fill="#dadbd8"></path><path d="m6781.4 1423.9c0.1-0.33-4.55-2.06-13.04-4.89-9.37-3.16-21.43-7.23-35.89-12.11-30.27-10.31-71.85-25.24-116.97-43.74-44.68-19.16-86.82-34.72-110.82-55.52-11.98-10.26-18.86-21.36-22.26-29.45-3.44-8.14-4.05-13.13-4.51-13.05-0.17 0.03-0.12 1.27 0.14 3.65 0.4 2.33 1.01 5.83 2.55 10.1 2.93 8.56 9.62 20.43 21.73 31.41 12.06 11 28.85 20.87 48.09 29.86 19.23 8.98 40.54 18.34 63.18 27.64 45.26 18.56 87.16 33 117.76 42.47 15.3 4.77 27.79 8.28 36.44 10.61 8.67 2.26 13.51 3.36 13.6 3.02" fill="#dadbd8"></path><path d="m6880.8 1668c0.12-0.13-1.14-1.47-3.65-3.9-2.96-2.77-6.64-6.24-11.14-10.46-10.34-9.39-24.4-22.18-41.55-37.75-35.89-31.95-84.55-75.28-138.32-123.16-53.98-48.05-100.64-93.97-132.98-128.55-16.19-17.27-28.94-31.57-37.65-41.55-4.06-4.64-7.38-8.44-10.04-11.49-2.34-2.6-3.63-3.9-3.75-3.8-0.14 0.11 0.88 1.63 2.96 4.45 2.1 2.78 5.16 6.94 9.34 12.09 8.25 10.39 20.63 25.08 36.53 42.7 31.75 35.28 78.16 81.74 132.25 129.89 54.18 47.95 103.49 91.03 139.31 122.07 17.58 15.09 32.01 27.46 42.61 36.57 4.75 3.93 8.64 7.15 11.75 9.74 2.73 2.19 4.21 3.27 4.33 3.15" fill="#dadbd8"></path><path d="m6627.8 1443.9c-1.42 0.63 9.86 26.68 21.1 59.61 11.34 32.92 16.68 60.72 18.12 60.48 1.31-0.13-1.89-28.74-13.37-62.09-5.66-16.66-11.89-31.3-16.8-41.7-4.91-10.39-8.44-16.58-9.05-16.3" fill="#dadbd8"></path><path d="m6478.6 1233.9c-0.27-0.2-3.23 3.25-8.32 9.66-5.64 7.24-12.79 16.4-21.31 27.33-17.91 23.14-42.65 55.09-70.4 90.05s-53.25 66.31-71.73 89.01c-8.71 10.78-16 19.81-21.77 26.95-5.09 6.42-7.79 10.07-7.52 10.3 0.26 0.22 3.45-3 9-9.03 5.56-6.01 13.42-14.88 23.01-25.94 19.19-22.12 45.14-53.17 72.94-88.18 27.77-35 52.12-67.32 69.3-91.03 8.61-11.85 15.45-21.53 20.05-28.3 4.61-6.77 7.03-10.61 6.75-10.82" fill="#dadbd8"></path><path d="m6412.1 1319.2c-0.82-0.88-18.56 20.15-27.86 52.13-6.85 22.53-7.15 43.13-6.3 52.55l2.21-0.17c-0.99-4.02-1.72-6.14-2.12-6.08-0.39 0.06-0.41 2.31-0.08 6.43l2.21-0.18c0.81-9.34 2.23-29.24 8.9-51.13 8.96-30.97 24.38-52.7 23.04-53.55" fill="#dadbd8"></path><path d="m6326.3 1427.2c-0.65-0.7-6.36 6.5-19.45 11.3-12.99 5.01-32.53 6.12-53.98 4.28-21.46-1.57-40.64-5.4-54.36-8.77-13.72-3.4-22.1-6.07-22.36-5.36-0.23 0.59 7.75 4.45 21.41 8.78 13.64 4.29 33.08 8.75 54.94 10.35 21.69 1.88 42.25 0.21 55.68-6 13.6-6.03 18.56-14.46 18.12-14.58" fill="#dadbd8"></path><path d="m6305.9 1453.3c-0.39-0.78-11.32 4.54-29.78 10.85-18.43 6.34-44.68 12.99-74.32 15.29-29.66 2.22-56.61-0.38-75.79-3.85-19.2-3.43-30.82-7.04-31.08-6.21-0.11 0.33 2.7 1.52 7.9 3.37 5.16 1.93 12.86 4.13 22.49 6.32 19.24 4.4 46.67 7.63 76.86 5.37 30.18-2.34 56.8-9.69 75.15-16.96 9.19-3.62 16.45-6.96 21.28-9.66 4.85-2.62 7.45-4.21 7.29-4.52" fill="#dadbd8"></path><path d="m6477.9 1564c-1.34-0.34-11.07 33.45-21.72 75.46-10.67 42.02-18.21 76.35-16.87 76.69s11.07-33.44 21.72-75.46c10.66-42.01 18.21-76.34 16.87-76.69" fill="#dadbd8"></path><path d="m6479.3 1564c-1.49-0.47-7.75 22.09-24.08 45.18-15.89 23.57-36.18 35.4-35.43 36.57 0.27 0.53 5.86-1.53 13.67-7.05 7.84-5.46 17.52-14.7 25.86-26.64 16.96-24.02 21.19-47.97 19.98-48.06" fill="#dadbd8"></path><path d="m6478.2 569.73c-0.54-0.082-1.56 8.34-5.47 23.071-3.87 14.73-11.14 35.621-23.18 60.058-23.97 48.973-67.58 111.07-123 173.27-27.45 31.383-54.09 60.973-76.71 89.312-22.65 28.289-41.26 55.258-54.85 79.11-13.64 23.839-22.51 44.289-27.7 58.709-2.54 7.24-4.41 12.89-5.43 16.8-1.1 3.87-1.6 5.93-1.44 5.98 0.45 0.15 2.98-7.94 8.7-22.08 5.71-14.13 15.01-34.2 28.92-57.608 13.89-23.454 32.66-50.012 55.4-78.012 22.7-28.051 49.38-57.481 76.89-88.91 55.56-62.36 99.07-125.25 122.41-175.03 11.73-24.847 18.57-46.136 21.88-61.128 1.61-7.52 2.69-13.368 3.07-17.399 0.5-4.019 0.67-6.121 0.51-6.141" fill="#dadbd8"></path><path d="m6752.2 879.14c0.16-0.371-5.07-3.032-14.35-8.071-9.21-5.16-22.28-13.129-37.25-24.609-14.97-11.461-31.71-26.512-48.9-44.609-17.16-18.133-34.85-39.192-52.89-61.75-36.08-45.27-69.83-85.332-90.03-117.31-10.27-15.859-17.73-29.23-22.61-38.609-4.93-9.36-7.54-14.621-7.9-14.45-0.16 0.059 0.3 1.469 1.33 4.071 1.07 2.59 2.52 6.449 4.82 11.25 4.37 9.691 11.41 23.418 21.36 39.64 19.62 32.739 53.09 73.36 89.12 118.55 18.08 22.61 35.98 43.699 53.47 61.817 17.52 18.062 34.7 33.011 50.11 44.242 15.41 11.238 28.9 18.82 38.46 23.5 4.76 2.39 8.63 3.859 11.2 4.961 2.6 1.058 3.99 1.539 4.06 1.379" fill="#dadbd8"></path><path d="m6757.6 778.76c0.05-0.731-11.6-2.141-30.36-4.41-18.69-2.422-44.7-5.532-71.96-14.18-27.16-8.832-49.74-22.313-64.44-33.801-14.86-11.492-21.86-20.98-22.54-20.422-0.25 0.172 1.21 2.75 4.49 6.981 3.24 4.25 8.56 9.929 15.81 16.179 14.47 12.473 37.26 26.762 65.14 35.84 27.93 8.84 54.29 11.403 73.15 12.93 18.93 1.371 30.65 1.531 30.71 0.883" fill="#dadbd8"></path><path d="m6577.1 716.97c-1.59 0.902 12.1 21.793 22.7 49.883 9.95 28.347 12.29 53.218 14.07 52.918 0.65-0.071 0.62-6.278-0.5-16.278-1.2-9.953-3.59-23.781-8.85-38.34-5.3-14.562-12.26-26.711-17.6-35.191-5.41-8.449-9.26-13.34-9.82-12.992" fill="#dadbd8"></path><path d="m6840.9 1148.6c0.07-0.15-1.61-1.04-4.85-2.58-3.77-1.71-8.49-3.85-14.26-6.48-6.25-2.68-13.82-6.07-22.37-10.58-8.57-4.42-18.57-8.98-28.99-15.23-5.3-3.01-10.81-6.15-16.56-9.42-5.74-3.3-11.41-7.22-17.46-11-12.2-7.4-24.43-16.52-37.48-25.83-25.53-19.38-52.38-42.32-78.23-68.799-25.6-26.75-47.62-54.371-66.11-80.562-8.86-13.367-17.55-25.887-24.53-38.348-3.58-6.16-7.3-11.972-10.41-17.82-3.06-5.852-6.01-11.481-8.83-16.871-5.9-10.621-10.11-20.77-14.24-29.5-4.21-8.692-7.35-16.379-9.81-22.711-2.43-5.867-4.41-10.649-5.99-14.469-1.42-3.289-2.25-5-2.41-4.941-0.16 0.051 0.35 1.863 1.46 5.281 1.36 3.91 3.05 8.82 5.13 14.832 2.19 6.469 5.07 14.297 9.05 23.137 3.91 8.863 7.91 19.179 13.63 29.961 2.76 5.468 5.63 11.179 8.62 17.121 3.02 5.941 6.69 11.828 10.21 18.09 6.88 12.621 15.5 25.328 24.32 38.859 18.42 26.52 40.51 54.461 66.31 81.42 26.05 26.7 53.21 49.72 79.08 69.03 13.22 9.28 25.62 18.33 38.01 25.63 6.13 3.74 11.9 7.59 17.72 10.82 5.83 3.2 11.45 6.26 16.82 9.19 10.58 6.1 20.75 10.46 29.48 14.66 8.7 4.28 16.43 7.43 22.81 9.85 5.94 2.27 10.79 4.14 14.66 5.62 3.37 1.23 5.17 1.81 5.22 1.64" fill="#dadbd8"></path><path d="m6624.1 1003.4c-0.44 0.07 1.97 8.48 11.92 17.75 9.71 9.24 27.41 17.8 48.03 18.43 20.56 0.54 38.38-5.21 50.55-9.88 12.23-4.81 19.35-8.7 19.11-9.28-0.29-0.7-7.91 2.04-20.28 5.94-12.32 3.77-29.74 8.74-49.22 8.2-19.41-0.6-36.17-8.07-45.88-16.09-9.94-8.01-13.43-15.56-14.23-15.07" fill="#dadbd8"></path><path d="m6591.7 969.92c-1.38 0.769 10.85 18.687 13.63 44.378 3.2 25.64-4.57 45.89-3.06 46.31 0.56 0.24 3.28-4.48 5.64-12.92 2.37-8.39 3.93-20.62 2.4-33.98-1.58-13.34-5.92-24.878-10.16-32.511-4.24-7.668-7.98-11.617-8.45-11.277" fill="#dadbd8"></path><path d="m6238.7 520.02c7.47-132.57 47.42-267.39 108.87-403.7h267.2c58.61 134.96 95.79 269.58 102.41 403.7h-478.48" fill="#dadbd8"></path><path d="m6673.8 305.5c0-1.379-87.97-2.5-196.48-2.5-108.54 0-196.49 1.121-196.49 2.5s87.95 2.512 196.49 2.512c108.51 0 196.48-1.133 196.48-2.512" fill="#fafaf9"></path><path d="m6667.9 257.48c0-1.39-82.48-2.511-184.19-2.511-101.76 0-184.22 1.121-184.22 2.511 0 1.379 82.46 2.5 184.22 2.5 101.71 0 184.19-1.121 184.19-2.5" fill="#fafaf9"></path><path d="m6351.8 432.98c1.39 0 2.51-27.558 2.51-61.55 0-33.989-1.12-61.551-2.51-61.551-1.38 0-2.51 27.562-2.51 61.551 0 33.992 1.13 61.55 2.51 61.55" fill="#fafaf9"></path><path d="m6495 432.98c1.38 0 2.51-28.539 2.51-63.73 0-35.219-1.13-63.75-2.51-63.75-1.39 0-2.51 28.531-2.51 63.75 0 35.191 1.12 63.73 2.51 63.73" fill="#fafaf9"></path><path d="m6629.4 434.06c1.39 0 2.51-29.11 2.51-65.008 0-35.91-1.12-65.012-2.51-65.012s-2.51 29.102-2.51 65.012c0 35.898 1.12 65.008 2.51 65.008" fill="#fafaf9"></path><path d="m6708.6 432.98c0-1.39-103.18-2.511-230.45-2.511-127.31 0-230.47 1.121-230.47 2.511 0 1.379 103.16 2.512 230.47 2.512 127.27 0 230.45-1.133 230.45-2.512" fill="#fafaf9"></path><path d="m6934 102.39c0-1.442-1547.8-2.6097-3456.6-2.6097-1909.5 0-3456.9 1.1677-3456.9 2.6097 0 1.441 1547.4 2.601 3456.9 2.601 1908.8 0 3456.6-1.16 3456.6-2.601" fill="#000"></path><path d="m4607.7 1709.8-0.11-0.1c31.04 50.66 46.18 111.59 39.15 175.2-16.79 152.38-153.92 262.27-306.28 245.47-152.38-16.8-262.27-153.92-245.47-306.3 16.79-152.36 153.92-262.26 306.3-245.46 52.97 5.84 100.8 26.26 139.97 56.78l84.78-10.63-18.34 85.04" fill="#fff"></path><path d="m4607.7 1709.8s0.46-1.68 1.3-5.28c0.89-3.85 2.13-9.21 3.73-16.13 3.33-14.7 8.16-36 14.39-63.4l0.35-1.52-1.58 0.19c-23.46 2.82-52.08 6.27-84.82 10.23l1.12 0.3c-32.11-25.25-75.95-47.82-128.8-55.94-13.14-2.27-26.85-2.37-40.8-3.38-13.97 0.66-28.35 0.56-42.79 3.23-28.88 4.31-58.66 12.82-86.75 27.51-56.15 28.82-106.72 80.09-132.63 146.58-13.01 33.03-19.89 69.41-19.45 106.46 0.43 37.04 8.5 74.71 24.16 109.65 25.23 58.22 70.98 104.46 123.19 132.82 52.63 28.18 111.99 37.81 166.2 31.08 27.32-2.63 53-11.06 76.91-20.8 24-10.01 45.08-24.09 64.46-38.72 37.57-31 64.71-68.73 81.2-106.62 16.09-38.11 22.55-75.69 22.73-108.44 0.2-32.84-5.19-60.94-12.09-82.93-6.72-22.12-14.79-38.26-20.51-48.98-2.87-5.37-5.27-9.35-6.97-12-1.66-2.67-2.56-4.02-2.66-4.01l-0.01 0.01 0.12 0.09-0.11-0.1-0.01 0.01c-0.04 0.07 0.7 1.53 2.21 4.27 1.53 2.74 3.79 6.79 6.51 12.22 5.38 10.84 13.11 27.03 19.49 49.07 6.54 21.93 11.59 49.82 11.12 82.32-0.45 32.4-7.11 69.49-23.2 107.01-16.49 37.28-43.42 74.33-80.53 104.71-19.14 14.32-39.93 28.11-63.56 37.88-23.56 9.5-48.81 17.74-75.67 20.25-53.3 6.48-111.59-3.09-163.21-30.81-51.21-27.91-96.1-73.31-120.85-130.45-15.37-34.3-23.3-71.25-23.75-107.6-0.46-36.37 6.26-72.1 18.97-104.55 25.36-65.31 74.92-115.8 130.05-144.31 27.59-14.54 56.86-23.01 85.28-27.38 14.2-2.68 28.36-2.62 42.12-3.34 13.75 0.94 27.27 0.95 40.24 3.14 52.15 7.74 95.56 29.72 127.52 54.45l0.51 0.39 0.62-0.08c32.71-4.26 61.29-7.99 84.73-11.04l-1.22-1.34c-5.55 27.19-9.86 48.31-12.83 62.88-1.43 7.11-2.53 12.62-3.33 16.57-0.75 3.77-1.1 5.83-1.1 5.83" fill="#000"></path><path d="m4483.4 1881.2c-1.58 14.42-8.49 27.95-18.1 38.82-9.4 10.64-21.73 19.06-35.6 22.16-14.72 3.29-30.76 0.22-43.25-8.26-7.42-5.04-13.53-11.96-17.75-19.88-4.08 7.07-9.67 13.25-16.37 17.9-12.4 8.61-28.41 11.84-43.16 8.7-13.91-2.95-26.31-11.24-35.82-21.78-9.72-10.78-16.78-24.23-18.5-38.64-2.16-18.03 1.23-37.81 10.51-53.42 9.8-16.5 25.7-29.86 42.08-39.84 27.55-16.79 63.82-37.82 63.82-37.82s30.87 22.84 58.59 39.34c16.48 9.82 32.52 23.01 42.49 39.4 9.44 15.53 13.03 35.26 11.06 53.32" fill="#3b5998"></path><path d="m6076.6 1872.8h-1193.4v2143.9h1193.4v-2143.9" fill="#000"></path><path d="m6016.6 1936.6h-1085.7v2017.8h1085.7v-2017.8" fill="#fff"></path><path d="m5886.8 3126.4c0-53.56-43.42-96.99-96.99-96.99-53.56 0-96.99 43.43-96.99 96.99s43.43 96.99 96.99 96.99c53.57 0 96.99-43.43 96.99-96.99" fill="#3b5998"></path><path d="m5789.8 2922.9c-1.43 0-2.61 17.85-2.61 39.85 0 22.01 1.18 39.86 2.61 39.86 1.44 0 2.6-17.85 2.6-39.86 0-22-1.16-39.85-2.6-39.85" fill="#3b5998"></path><path d="m5701.9 3027.7c1.09-0.93-5.32-10.34-14.33-21.02-9.03-10.68-17.22-18.59-18.33-17.66-1.09 0.93 5.33 10.34 14.34 21.02s17.22 18.58 18.32 17.66" fill="#3b5998"></path><path d="m5666.4 3111.2c0-1.44-18.07-2.6-40.38-2.6-22.3 0-40.39 1.16-40.39 2.6s18.09 2.6 40.39 2.6c22.31 0 40.38-1.16 40.38-2.6" fill="#3b5998"></path><path d="m5696.3 3200.6c-1.01-1.02-10.08 6.31-20.26 16.38-10.19 10.07-17.62 19.06-16.6 20.08 1 1.03 10.08-6.31 20.26-16.38 10.18-10.06 17.61-19.05 16.6-20.08" fill="#3b5998"></path><path d="m5785.5 3347.1c1.44 0 2.61-21.65 2.61-48.36s-1.17-48.36-2.61-48.36c-1.43 0-2.6 21.65-2.6 48.36s1.17 48.36 2.6 48.36" fill="#3b5998"></path><path d="m5896.5 3252.2c1.12-0.9-4.16-9.46-11.8-19.13-7.64-9.68-14.75-16.8-15.89-15.91-1.12 0.9 4.16 9.46 11.8 19.13 7.65 9.68 14.76 16.8 15.89 15.91" fill="#3b5998"></path><path d="m5980.3 3130.3c0-1.44-17.2-2.6-38.41-2.6-21.22 0-38.41 1.16-38.41 2.6s17.19 2.6 38.41 2.6c21.21 0 38.41-1.16 38.41-2.6" fill="#3b5998"></path><path d="m5921.8 3008.4c-1.01-1.02-9.92 6.25-19.89 16.24-9.97 9.98-17.23 18.9-16.21 19.92s9.92-6.25 19.89-16.24 17.23-18.91 16.21-19.92" fill="#3b5998"></path><path d="m4926.1 2554.4c58.45 43.74 147.39 16.99 195.32-38.07 47.94-55.07 65.27-129.6 81.01-200.89 58.45 17.21 126.03-2 166.69-47.4 40.65-45.4 52.33-114.68 28.81-170.89 108.79 31.84 236.62-26.6 283.72-129.72-10.02 55.06 7.3 114.43 45.37 155.46 38.06 41.03 95.96 62.76 151.63 56.89-56.91 134.1 8.53 307.35 139.87 370.35v-615.48h-1093.6l1.21 619.75" fill="#33535f"></path><path d="m6127.1 1853.5-50.47 19.32v2180.2h50.47v-2199.5" fill="#33535f"></path><path d="m6040.2 3352.5h-1109.3v21.49h1109.3v-21.49" fill="#000"></path><path d="m6040.2 2872h-1109.3v21.49h1109.3v-21.49" fill="#000"></path><path d="m6040.2 2391.5h-1109.3v21.49h1109.3v-21.49" fill="#000"></path><path d="m5501.2 3363.3v-1483.8h-54.86v1483.8h54.86" fill="#000"></path><path d="m5164.8 3363.3h-24.85v591.21h24.85v-591.21" fill="#000"></path><path d="m5379.2 3363.3h-24.86v591.21h24.86v-591.21" fill="#000"></path><path d="m5593.5 3363.3h-24.85v591.21h24.85v-591.21" fill="#000"></path><path d="m5807.8 3363.3h-24.86v591.21h24.86v-591.21" fill="#000"></path><path d="m4883.2 1859.5-50.48-2.26v2195.7h50.48v-2193.5" fill="#33535f"></path><path d="m6127.1 4016.6h-1294.4v58.49h1294.4v-58.49" fill="#33535f"></path><path d="m6161.3 1791.8h-1364.3v54.5h1364.3v-54.5" fill="#33535f"></path><path d="m6076.6 1872.8 84.64-26.53h-1364.3l86.29 26.53h1193.4" fill="#33535f"></path><path d="m6160.3 1846.2c0-1.44-304.13-2.61-679.21-2.61-375.21 0-679.27 1.17-679.27 2.61 0 1.43 304.06 2.6 679.27 2.6 375.08 0 679.21-1.17 679.21-2.6" fill="#000"></path><path d="m4891.6 4009.9c-0.86-1.06-16.63 10.83-32.32 29.3-15.76 18.42-25 35.87-23.82 36.55 1.29 0.81 12.32-15.11 27.78-33.17 15.38-18.12 29.36-31.55 28.36-32.68" fill="#000"></path><path d="m6127.1 4075.1c1.07-0.97-11.24-16.41-27.5-34.5-16.26-18.1-30.31-31.98-31.38-31.02-1.06 0.96 11.24 16.4 27.5 34.5 16.26 18.09 30.31 31.97 31.38 31.02" fill="#000"></path><path d="m4881.9 1875.3c0.22-0.52-1.23-1.72-3.93-3.34l-0.14-0.05c-4.14-2.2-11.14-5.19-19.17-8.12-13.31-4.84-24.55-7.68-25.12-6.35-0.56 1.32 9.89 6.37 23.36 11.25 8.13 2.96 15.46 5.17 20.02 6.13l-0.15-0.06c3.04 0.84 4.91 1.07 5.13 0.54" fill="#000"></path><path d="m5616.8 1030.3c-93.02-108.43-102.86-225.55-139.96-335.21-60.61-179.14-93.4-361.67-59.32-547.68 48.12-51.082 148.03-48.019 232.4-37.992 83.47 9.922 174.11 4.551 264.07-0.82 71.46-4.27 142.49-8.527 209.18-5.137 31.14 1.59 56.81 14.43 79.86 35.43 36.76 33.469 35.15 90.297 37.47 139.96 10.7 228.52 159.49 425.92 219.74 646.62 3.48 12.711 6.39 27.281-0.87 38.281-6.71 10.149-19.78 13.629-31.71 16-126.1 25.049-256.11 13.418-384.6 9-122.06-4.199-248.14-0.992-360.92 44.689-15.4 6.23-32.29 8.19-48.51 4.6-7.16-1.58-13.63-4.02-16.83-7.74" fill="#33535f"></path><path d="m5756.2 707.97c-0.11 0.082 0.82 1.402 2.69 3.863 2.16 2.758 4.92 6.277 8.33 10.637 3.6 4.652 8.13 10.211 13.83 16.301 5.65 6.132 11.79 13.41 19.45 20.601 3.76 3.688 7.68 7.539 11.76 11.551 4.12 3.988 8.74 7.769 13.34 11.887 9.1 8.371 19.65 16.332 30.58 24.902 22.34 16.508 48.06 33.16 76.5 48 28.61 14.578 57.09 25.871 83.5 34.5 13.33 3.937 25.93 7.91 38.03 10.469 6.01 1.359 11.77 2.929 17.42 3.968 5.63 1 11.04 1.973 16.23 2.891 10.3 2.07 19.78 2.852 28.06 3.891 8.27 1.121 15.44 1.59 21.29 1.82 5.54 0.25 10 0.449 13.5 0.621 3.09 0.09 4.71 0.078 4.71-0.051 0.01-0.14-1.6-0.379-4.67-0.738-3.47-0.34-7.92-0.781-13.41-1.32-5.84-0.473-12.96-1.153-21.16-2.461-8.21-1.242-17.63-2.211-27.84-4.442-5.15-0.988-10.52-2.039-16.11-3.117-5.58-1.113-11.29-2.742-17.27-4.16-11.99-2.68-24.48-6.75-37.7-10.75-26.17-8.762-54.4-20.062-82.81-34.543-28.25-14.738-53.83-31.18-76.15-47.418-10.92-8.449-21.47-16.262-30.61-24.48-4.62-4.032-9.25-7.739-13.41-11.653-4.12-3.929-8.08-7.699-11.87-11.308-7.74-7.032-13.99-14.141-19.77-20.121-5.83-5.907-10.51-11.317-14.27-15.809-3.64-4.16-6.58-7.531-8.87-10.148-2.06-2.301-3.19-3.461-3.3-3.383" fill="#000"></path><path d="m5661.6 1039c-3.79 0.54-7.6 0.82-11.42 0.82-2.29 0-4.59-0.1-6.88-0.31l2.94 9.92c5.52-2.98 10.63-6.49 15.36-10.43" fill="#c3c5c2"></path><path d="m5509.5 114.77-30.4 3.179 56.89 173.51-43.71 238.26 151.01 509.83c2.29 0.21 4.59 0.31 6.88 0.31 3.82 0 7.63-0.28 11.42-0.82 26.98-22.48 41.24-59.149 45.64-94.708 5.17-41.793-0.54-84.152 1.07-126.23 1.61-42.071 12.14-86.622 42.94-115.33-91.6-68.04-149.04-179.92-150.96-294.01-0.82-48.774 7.89-97.672 2.71-146.17-5.18-48.508-21.99-128.82-93.49-147.82" fill="#263f48"></path><path d="m5646.4 1269.8 195.18-209.14c32.21-34.52 55.58-66.039 101.23-78.078 31.97-8.434 82.16-4.031 98.72 17.16 22.71 29.078 33.54 88.728 8.65 127.16-24.87 38.43-199.61 209.48-199.61 209.48l-204.17-66.58" fill="#f8a58d"></path><path d="m5578.1 1616.2c-2.63 73.77-5.32 147.9-19.43 220.35-14.1 72.45-31.8 143.08-77.16 201.3l-424.39-22.68c-16.38-65.4-32.88-132.41-26.09-199.49 6.61-65.08 35.03-128 30.44-193.27-3.24-46.11-22.73-89.24-37.12-133.17-14.39-43.94-23.61-92.72-6.52-135.68 4.31-10.82 10.57-21.37 20.32-27.73 11.96-7.79 27.15-8.1 41.43-8.12 169.66-0.23 339.32 3.66 508.79 11.67-3.42 95.61-6.85 191.22-10.27 286.82" fill="#000"></path><path d="m5916.7 1288s-202.83 242.03-279.93 242.03c0 0-48.76-85.84-50.37-132.63-1.61-46.8 156.04-265.92 156.04-265.92l174.26 156.52" fill="#3b5998"></path><path d="m5427.7 1532.7 208.56-2.16 64.43-321.29s-34.62-334.9-60.44-420.41c-25.82-85.519-92.2-246.58-92.2-246.58l-506.4 134.72-15.39 371.02-62.91 348.37 219.61 86.87 244.74 49.46" fill="#3b5998"></path><path d="m4817.4 1088.5c0 12.91 71.77 277.26 145.99 307.93l57.32-88.49 26.19-240.64-229.5 21.2" fill="#3b5998"></path><path d="m5698.7 1373.8c0.26-0.02 0.29-3.01 0.11-8.38-0.22-6.2-0.5-13.8-0.84-22.75-0.71-19.19-1.35-45.72-1-75.01 0.38-29.3 1.69-55.81 2.88-74.99 0.56-8.93 1.03-16.52 1.41-22.71 0.31-5.37 0.36-8.35 0.09-8.38-0.26-0.03-0.82 2.9-1.58 8.23-0.79 5.34-1.7 13.07-2.64 22.65-1.88 19.17-3.63 45.74-4.01 75.15-0.36 29.39 0.72 56 2.13 75.21 0.7 9.6 1.42 17.36 2.07 22.71 0.64 5.35 1.11 8.3 1.38 8.27" fill="#000"></path><path d="m5024.4 1297.1c0.27-0.04-0.02-3.33-0.77-9.22-0.78-5.88-1.81-14.41-2.9-24.94-2.22-21.08-4.14-50.32-3.47-82.62 0.75-32.31 3.95-61.45 7.09-82.4 1.56-10.48 2.95-18.96 4-24.8 0.99-5.85 1.43-9.11 1.17-9.17-0.25-0.06-1.18 3.1-2.65 8.87-1.49 5.76-3.3 14.18-5.2 24.66-3.85 20.93-7.51 50.22-8.25 82.75-0.69 32.52 1.69 61.95 4.61 83.03 1.45 10.55 2.88 19.04 4.13 24.86 1.2 5.83 1.99 9.03 2.24 8.98" fill="#000"></path><path d="m5469.8 697.97c-0.2-0.16-2.79 2.679-7.29 7.992-4.94 5.859-11.28 13.43-18.91 22.531-15.93 19.039-38.04 45.258-62.98 73.758-24.95 28.512-48.01 53.91-64.77 72.219-7.99 8.773-14.65 16.07-19.82 21.73-4.65 5.172-7.14 8.11-6.94 8.293 0.19 0.188 3.04-2.402 8.03-7.25 4.99-4.84 12.07-11.972 20.71-20.902 17.29-17.848 40.7-43 65.69-71.551 24.97-28.551 46.79-55.078 62.19-74.59 7.7-9.75 13.84-17.719 17.97-23.32 4.14-5.578 6.33-8.75 6.12-8.91" fill="#000"></path><path d="m5513.4 1854.5c2.61-90.83-35.94-182.06-102.92-243.48-15.33 44.43-30.67 88.85-46 133.28" fill="#000"></path><path d="m5166.6 2119.6c39.49 21.58 87.2 24.69 131.32 15.85 44.13-8.84 85.25-28.81 124.2-51.35 21.85-12.64 43.65-26.54 59.36-46.31 28.67-36.07 57.01-95.32 59.78-141.33 2.23-37.18-12.01-130.31-27.73-164.09-14.43-31-81.95-54.61-115.28-62.25l-305.81 355.65c10.81 39.5 38.21 74.19 74.16 93.83" fill="#000"></path><path d="m5113.9 2071.6 73.31 13.1c-40.06-95.42-50.93-313.68-73.86-414.61-27.02 39.2-89.78 158.63-86.42 206.13s-0.13 203.48 86.97 195.38" fill="#000"></path><path d="m5072 1916c4.77 73.23 53.5 162.98 126.46 155.1l168.82-43.07c54.17-13.81 90.27-59.55 94.21-115.3 0.2-2.78 0.48 0.61 0.43-1.48l-37.68-437.19-126.73-251.49-111.85 263.77c-0.06 35.65-0.07 64.03-0.08 63.84 0 0-93.53 15.75-112.65 137.87-9.5 60.74-6.24 146.6-0.93 227.95" fill="#f8a58d"></path><path d="m5117.1 1816.8c-0.32-8.27 6.43-15.35 15.06-15.83 8.61-0.48 15.85 5.81 16.17 14.08 0.31 8.27-6.44 15.36-15.04 15.84-8.63 0.48-15.88-5.82-16.19-14.09" fill="#000"></path><path d="m5090.3 1868.2c1.93-2.05 13.82 6.71 30.66 6.62 16.84 0.17 29.18-8.53 31.01-6.47 0.91 0.91-1.07 4.6-6.45 8.53-5.28 3.92-14.31 7.74-24.81 7.71s-19.34-3.88-24.41-7.82c-5.19-3.96-6.96-7.65-6-8.57" fill="#000"></path><path d="m5263.3 1816.8c-0.31-8.28 6.43-15.36 15.06-15.83 8.61-0.48 15.86 5.81 16.17 14.08 0.31 8.26-6.44 15.35-15.05 15.84-8.62 0.48-15.87-5.82-16.18-14.09" fill="#000"></path><path d="m5250.3 1868.2c1.94-2.05 13.84 6.7 30.67 6.62 16.83 0.16 29.18-8.53 31.01-6.47 0.9 0.91-1.05 4.6-6.45 8.52-5.29 3.93-14.31 7.74-24.81 7.72-10.49-0.03-19.33-3.88-24.41-7.82-5.18-3.96-6.96-7.65-6.01-8.57" fill="#000"></path><path d="m5197.6 1735.9c0.08 0.95-10.39 2.79-27.35 5-4.31 0.45-8.37 1.32-9.09 4.25-1.01 3.11 0.8 7.74 2.9 12.74 4.06 10.4 8.32 21.31 12.79 32.73 17.77 46.61 30.65 84.94 28.77 85.63-1.88 0.7-17.82-36.51-35.59-83.11-4.28-11.49-8.37-22.45-12.26-32.93-1.64-4.88-4.45-10.43-2.28-16.88 1.16-3.21 4.31-5.56 7.07-6.3 2.76-0.85 5.18-0.91 7.3-1.04 17.08-0.95 27.68-1.05 27.74-0.09" fill="#000"></path><path d="m5347.5 1593.7s-39.73-83.86-161.9-72.17l-0.03 28.72s80.45-5.28 161.93 43.45" fill="#f68260"></path><path d="m5255.6 1929.1c1.65-4.58 18.48-2.45 38.23-4.87 19.82-2.03 35.75-7.85 38.37-3.75 1.19 1.96-1.59 6.28-8.02 10.73-6.38 4.43-16.57 8.67-28.43 10.02-11.87 1.32-22.74-0.54-29.93-3.45-7.27-2.91-10.93-6.5-10.22-8.68" fill="#000"></path><path d="m5095.8 1919.8c2.95-3.82 14.57 0.12 28.52 0.28 13.95 0.64 25.77-2.63 28.5 1.37 1.2 1.94-0.66 5.77-5.81 9.41-5.09 3.61-13.59 6.59-23.19 6.32-9.59-0.29-17.9-3.73-22.76-7.65-4.94-3.91-6.57-7.85-5.26-9.73" fill="#000"></path><path d="m5105.1 2027.6c7.46 18.37 27.63 29.39 47.44 30.4 19.8 1 39.14-6.5 56.3-16.42 72.72-42.03 110.08-143.53 181.93-187.02 17.66-10.69 40.66-0.9 55.69-15.07 15.03-14.16 24.78-36.8 16.47-55.7 9.65 13.24 19.43 26.72 24.93 42.16 5.49 15.44 6.17 33.4-2.02 47.58-6.22 10.78-17.19 19-20.21 31.06-2.66 10.61 1.53 21.72 1.07 32.65-0.46 11.13-5.7 21.44-11.18 31.14-28.13 49.76-66.85 94.78-116.7 122.77-32.57 18.29-69.82 28.99-107.14 27.72-37.34-1.27-74.62-14.99-101.95-40.46-16.07-14.98-32.96-30.49-24.63-50.81" fill="#000"></path><path d="m5444.7 1824.3c1.29 3.51 64.97 26.49 65.82-41.2 0.81-65.76-65.53-52.81-65.67-50.92-0.13 1.88-0.15 92.12-0.15 92.12" fill="#f8a58d"></path><path d="m5465 1757.3c0.28 0.22 1.15-0.79 3.09-1.66 1.9-0.85 5.15-1.41 8.57-0.09 6.92 2.61 12.66 13.7 12.88 25.55 0.11 5.99-1.2 11.67-3.36 16.37-2.06 4.79-5.2 8.12-8.7 8.72-3.49 0.77-5.95-1.35-6.73-3.2-0.87-1.86-0.44-3.16-0.78-3.27-0.19-0.18-1.43 1.08-0.92 3.8 0.25 1.31 1.02 2.87 2.55 4.14 1.56 1.3 3.88 1.98 6.32 1.74 5.07-0.3 9.68-4.93 12.06-10.08 2.65-5.18 4.27-11.58 4.14-18.3-0.29-13.25-6.96-25.72-16.45-28.55-4.61-1.25-8.48 0.11-10.48 1.64-2.06 1.6-2.42 3.08-2.19 3.19" fill="#f68260"></path><path d="m5470.9 1858.1c-0.05-0.08-1.42 0.68-3.97 2.21-2.52 1.6-6.4 3.74-11.03 7.01-9.19 6.64-21.94 17.18-35.5 32.32-13.66 15.06-27.93 34.6-43.42 56.4-15.52 21.75-32.54 45.82-54.27 67.57-11.06 10.63-22.68 20.16-35.01 27.68-12.3 7.57-25.19 13.14-37.83 17.17-25.32 8.14-49.64 9.92-69.66 8.54-20.12-1.26-36.02-5.53-46.67-9.14-5.4-1.64-9.39-3.46-12.18-4.52-2.77-1.09-4.24-1.61-4.29-1.52s1.34 0.81 4.05 2.07c2.7 1.24 6.65 3.25 12.03 5.07 10.61 3.99 26.58 8.62 46.91 10.16 20.23 1.67 44.89 0.1 70.65-8.03 12.85-4.01 25.98-9.62 38.51-17.29 12.57-7.61 24.4-17.29 35.6-28.05 21.98-22.01 39.02-46.28 54.41-68.11 15.38-21.9 29.41-41.46 42.76-56.59 13.26-15.21 25.67-25.89 34.6-32.78 4.49-3.4 8.25-5.68 10.65-7.44 2.44-1.7 3.71-2.64 3.66-2.73" fill="#33535f"></path><path d="m5454.4 1839.5c1.03-17.95 1.86-36.92-6.44-52.88s-29.23-26.82-44.85-17.89c-12.74 7.27-16.55 23.59-18.71 38.1-6.23 41.89-9.09 84.23-15.69 126.06l85.69-93.39" fill="#000"></path><path d="m5239 1703.9c6.34-8.3 8.32-19.74 5.15-29.68-3.19-9.94-11.44-18.12-21.42-21.2-3.97-1.23-8.36-1.66-12.26-0.2-6.87 2.61-10.3 10.15-13.03 16.97-2.27 5.68-4.54 11.35-6.81 17.03-0.76 1.91-1.52 4.09-0.63 5.94 0.94 1.99 3.36 2.73 5.51 3.24 14.08 3.39 28.15 6.79 42.22 10.18" fill="#f68260"></path><path d="m5211.4 1654.9c0.04-0.42 7.47-1.28 19.18 2.41 5.71 1.98 12.66 6.07 16.81 13.66 2.12 3.64 3.05 8.7 2.58 13.06-0.3 4.48-1.33 9.11-3.35 13.5-1.95 4.24-4.72 7.98-7.94 10.98l-1.11 1.03-1.4-0.5c-27.95-9.85-49.82-14.85-49.58-16.04 0.18-1.23 22.71 1.79 51.2 11.34l-2.51 0.54c2.71-2.62 5.06-5.82 6.74-9.47 3.2-7.55 4.47-16.28 1.23-22.3-3.2-6.32-8.89-10.25-13.99-12.47-10.48-4.26-18.04-4.81-17.86-5.74" fill="#000"></path><path d="m5121.3 2058.8c0.07-0.38 5.82 1.09 16.35 1.42 10.48 0.29 25.96-1.1 43.53-7.95 8.74-3.41 18.04-7.93 27.25-14.03 9.23-6.09 18.63-13.4 28.13-21.47 18.87-16.31 38.41-35.91 55.07-59.37 8.35-11.73 15.75-23.79 23.77-34.96 7.94-11.2 16.77-21.32 26.35-29.64 19.13-16.61 38.81-28.25 55.58-37.18 16.83-8.89 30.89-15.12 40.59-19.43 4.59-1.95 8.31-3.54 11.25-4.79 2.58-1.05 3.97-1.55 4.03-1.43 0.05 0.12-1.23 0.84-3.72 2.11-2.86 1.41-6.5 3.21-10.96 5.42-9.5 4.7-23.38 11.28-39.95 20.42-16.51 9.17-35.87 20.94-54.56 37.43-9.32 8.21-17.86 18.1-25.67 29.2-7.88 11.04-15.26 23.12-23.71 34.99-16.9 23.8-36.69 43.49-55.86 59.81-9.67 8.1-19.2 15.36-28.67 21.46-9.47 6.11-19.04 10.59-28.01 13.91-18.04 6.66-33.89 7.68-44.51 6.95-5.33-0.35-9.43-1.07-12.15-1.7-2.74-0.65-4.15-1.05-4.13-1.17" fill="#33535f"></path><path d="m5403.5 1362.4 21.74-265.37c0.73-8.99-5.84-16.93-14.81-17.89l-163.68-17.4c-9.08-0.97-17.23 5.55-18.28 14.62l-32.08 277.22c-1.11 9.66 6.26 18.22 15.98 18.52l174.03 5.55c8.86 0.29 16.38-6.42 17.1-15.25" fill="#000"></path><path d="m5283.6 1250.2s-94.37-15.31-100.33-21.26c-5.97-5.96-124.78-151.56-124.78-151.56l60.59-119.19s95.36 51.639 106.28 57.609c10.93 5.96 33.77 10.92 33.77 10.92s107.27 16.88 114.23 29.8c6.95 12.91 2.97 15.89-4.97 17.87-7.94 2-72.11-5.32-86.41-7.95-14.31-2.63-42.72 0-42.72 0s44.56 10.39 54.63 13.92c10.08 3.54 109.87 25.82 108.27 43.7s-14.03 24.39-76.48 7.48c-62.46-16.89-105.28-16.92-105.28-16.92l138.05 48.18s55.63 17.87 37.75 33.77c-17.87 15.89-137.07-16.88-137.07-16.88l-52.64-19.88 14.89 31.79s74.88 22.21 84.48 29.7c11.87 9.26 13.55 17.84 4.62 25.52-8.95 7.66-26.88 3.38-26.88 3.38" fill="#f8a58d"></path><path d="m4849.5 1084 173.44-15.1-1.73-47.52 37.31 55.91 60.59-119.19s-21.97-70.821-33.79-109.95c-31.62-104.78-83.14-222.07-146.43-216.18-75.91 7.058-131.44 97.109-130.18 155.38 1.15 52.988 40.79 296.65 40.79 296.65" fill="#f8a58d"></path><path d="m5058.5 1077.3s1.03 1.49 3.2 4.24c2.26 2.86 5.48 6.92 9.66 12.19 8.69 10.74 21.31 26.39 37.49 46.44 16.41 20.1 36.41 44.59 59.57 72.97 2.94 3.53 5.92 7.11 8.96 10.75 1.51 1.82 3.07 3.66 4.73 5.5 2.19 1.9 4.77 2.52 7.06 3.35 9.49 2.82 19.36 4.9 29.54 7.02 20.37 4.15 41.96 8.01 64.67 11.81l-0.11-0.03c5.69 1.2 11.5 1.68 17.51 0.81 2.97-0.47 6-1.34 8.74-3.03 2.73-1.8 4.88-3.98 6.55-6.88 1.7-2.86 2.07-6.64 1-9.84-1.08-3.21-3.07-5.83-5.25-8.13-2.26-2.26-4.43-4.36-7.46-6.04-2.83-1.51-5.69-2.75-8.6-3.93-23.29-9.14-48.14-16.75-73.88-24.61l1.06 0.91c-4.6-9.84-9.7-20.74-14.87-31.8l-2.18 2.37c16.45 6.23 34.37 13.01 52.61 19.92l0.17 0.05c22.56 6.04 45.81 11.55 69.85 15.95 12.02 2.15 24.24 4.08 36.75 4.99 6.25 0.43 12.58 0.66 19.02 0.02 3.22-0.36 6.48-0.84 9.71-2.3 3.26-1.52 6.15-4.04 7.32-7.89 1.12-4.1-1.07-7.88-3.24-10.38-2.29-2.59-4.95-4.62-7.67-6.45-5.49-3.62-11.35-6.46-17.31-9.03-12.02-5.08-24.42-8.78-36.66-13.25-24.62-8.59-49.57-17.31-74.79-26.11-13.66-4.76-27.22-9.5-40.61-14.17l-0.63 3.74c33.37 1.12 66.21 7.04 97.54 14.95 15.67 4.06 31.3 8.37 47.21 10.6 7.94 1.04 16.06 1.87 24.26 0.07 4.01-0.91 8.27-2.92 10.88-6.61 2.59-3.73 3.49-7.78 3.67-12.14-0.08-2.77-1.63-4.72-3.04-6.25-1.46-1.58-3.08-2.84-4.74-3.96-3.32-2.26-6.79-4.1-10.3-5.74-7.02-3.34-14.18-5.99-21.34-8.51-14.32-4.96-28.64-9.05-42.79-12.89-7.07-1.86-14.08-3.73-21.03-5.56-6.82-1.82-13.7-4.24-20.59-5.84-13.71-3.54-27.21-6.75-40.48-9.86l-0.23 3.31c15.88-1.16 31.64-2.29 46.59 0.62 15.28 2.22 30.2 3.86 44.79 5.28 7.3 0.71 14.51 1.34 21.66 1.78 3.57 0.23 7.13 0.38 10.7 0.42 1.79-0.03 3.58-0.04 5.6-0.39 1.73-0.45 3.5-0.96 5.23-1.86 1.72-0.83 3.49-2.5 4.06-4.62 0.6-2.1 0.25-4.09-0.2-5.85-0.46-1.8-1.18-3.41-1.91-5.01l-1.18-2.33-1.9-2.32c-5.92-4.48-12.37-6.18-18.61-8.32-25.17-7.52-49.28-11.86-71.53-15.96-5.57-0.96-11.04-1.88-16.39-2.8-5.41-0.77-10.43-1.78-15.47-3.17-9.96-2.65-19.49-5.38-27.53-10.01-33-17.649-58.99-31.559-76.87-41.129-8.79-4.649-15.58-8.231-20.32-10.719-2.23-1.152-3.95-2.031-5.24-2.703-1.19-0.59-1.79-0.879-1.82-0.828-0.02 0.039 0.55 0.39 1.69 1.07 1.26 0.719 2.95 1.68 5.13 2.918 4.66 2.601 11.38 6.34 20.07 11.172 17.78 9.758 43.61 23.941 76.41 41.949 16.74 9.31 37.78 12.82 59.91 16.59 22.17 4.21 46.28 8.69 71.13 16.24 6.04 2.04 12.7 4.07 17.54 7.81l1.29 1.54 1.11 2.22c0.66 1.48 1.32 3 1.71 4.52 0.89 3.13 0.42 5.88-2.45 7.17-1.33 0.69-2.94 1.17-4.58 1.58-1.44 0.23-3.15 0.27-4.88 0.28-3.46-0.05-6.97-0.22-10.52-0.45-7.09-0.47-14.26-1.13-21.54-1.84-14.53-1.48-29.46-3.18-44.6-5.41-15.34-3.02-31.36-1.91-47.39-0.77-0.92 0.05-1.61 0.85-1.54 1.77l1.27 1.52 0.04 0.01c13.24 3.12 26.73 6.37 40.38 9.92 6.9 1.63 13.47 3.97 20.55 5.88 6.95 1.85 13.96 3.73 21.02 5.61 14.08 3.85 28.35 7.95 42.52 12.89 7.07 2.5 14.16 5.14 20.95 8.39 3.41 1.59 6.75 3.38 9.79 5.46 2.85 2 6.17 4.74 6.17 7.29-0.13 3.28-1.02 7.19-2.97 9.84-1.94 2.75-5.2 4.36-8.76 5.18-7.2 1.61-15.13 0.89-22.87-0.17-15.59-2.2-31.03-6.47-46.79-10.55-31.6-8-64.44-13.98-98.47-15.12-1.06-0.04-1.95 0.79-1.98 1.84l1.28 1.87 0.06 0.03c13.4 4.67 26.97 9.41 40.62 14.17 25.24 8.8 50.2 17.51 74.82 26.11 12.26 4.45 24.72 8.19 36.39 13.11 5.83 2.51 11.53 5.29 16.7 8.7 2.56 1.7 4.99 3.59 6.91 5.76 1.88 2.17 3.11 4.7 2.44 6.92-1.54 4.99-7.79 6.96-13.77 7.42-6.03 0.61-12.22 0.41-18.35-0.01-12.27-0.87-24.41-2.77-36.35-4.89-23.89-4.35-47.12-9.8-69.56-15.78l0.15 0.05c-18.26-6.87-36.19-13.62-52.65-19.81l-2.25 1.01 0.06 1.36c5.18 11.04 10.31 21.93 14.93 31.76l1.05 0.91c25.67 7.77 50.6 15.34 73.65 24.3 2.86 1.15 5.67 2.36 8.27 3.74 2.4 1.27 4.74 3.42 6.74 5.44 4.08 4.02 6.71 9.69 3.82 14.33-2.65 4.76-7.63 7.77-13.08 8.43-5.42 0.82-11.12 0.38-16.36-0.7l-0.08-0.01-0.03-0.01c-22.67-3.7-44.27-7.46-64.6-11.5-10.14-2.07-20.04-4.11-29.32-6.81-2.29-0.8-4.57-1.44-6.06-2.69-1.55-1.79-3.1-3.57-4.63-5.34-3.05-3.62-6.05-7.19-9-10.69-23.38-28.19-43.55-52.54-60.11-72.5-16.44-19.85-29.27-35.32-38.09-45.96-4.33-5.14-7.65-9.11-10-11.91-2.28-2.67-3.53-3.97-3.53-3.97" fill="#f68260"></path><path d="m4757.2 291.09-297.58-123.96 116.95-135.61 254.38 49.73-73.75 209.84" fill="#f8a58d"></path><path d="m5552.4 551.23s15.06-342.06-15.06-402.3c-30.12-60.239-333.46-68.84-333.46-68.84l-478.1-34.348-60.55 222.67s344.76 168.92 377.37 188.29c32.6 19.36 109.65 53.653 109.65 53.653l113.92 153.07 286.23-112.19" fill="#000"></path><path d="m4997.8 71.809c-0.04 0.1211 1.25 0.6133 3.73 1.4336 2.88 0.9101 6.49 2.0469 10.94 3.457 10.04 2.9922 23.8 7.0899 40.68 12.133 35.04 10.078 82.98 23.879 136.9 39.41l0.17 0.047 0.32 0.02c7.38 0.5 15.23 0.562 23.06 1.921 7.62 0.77 14.93 2.77 22.23 4.282 7.1 2.25 14.25 3.988 20.91 6.828 13.59 4.91 25.9 11.59 37.23 18.461 22.45 14.219 40.02 30.929 52.64 46.551 12.65 15.66 20.54 30.039 25.53 40.128 2.5 5.059 4 9.192 5.29 11.879 1.21 2.723 1.91 4.129 2.04 4.09 0.13-0.047-0.33-1.539-1.32-4.367-1.05-2.781-2.33-7.031-4.64-12.223-4.61-10.359-12.22-25.109-24.77-41.199-12.51-16.058-30.15-33.238-52.87-47.851-11.47-7.079-23.96-13.938-37.79-19-6.76-2.907-14.05-4.719-21.29-7.008-7.43-1.551-14.89-3.582-22.66-4.379-7.99-1.391-16.01-1.461-23.54-1.942l0.5 0.071c-54.04-15.051-102.11-28.43-137.24-38.211-17.02-4.5585-30.88-8.2812-40.99-11-4.52-1.1289-8.21-2.0585-11.14-2.789-2.54-0.6094-3.89-0.8594-3.92-0.7422" fill="#33535f"></path><path d="m5032.3 446.68-34.46 482.06s22.24 358.22-179.92 339c-202.16-19.23-188.19-335.5-188.19-335.5s12.24-433.36 24.47-496.27 17.2-132.61 57.53-158.92l183.62 22.621 136.95 147.01" fill="#000"></path><path d="m4930 1173.4 44.58-119.28-44.58-448.63s-260.22-13.989-257.55-6.989c2.66 6.989-39.37 225.42-39.37 225.42s-6.9 288.32 71.74 340.74c78.63 52.43 225.18 8.74 225.18 8.74" fill="#000"></path><path d="m4919.9 604.93-10.23-214.54-188.05-93.832-36.05 300.11 234.33 8.258" fill="#f8a58d"></path><path d="m5266.2 663.42-216.85 71.75-110.43-103.16 70.17-210.28 172.47 68.489 84.64 173.2" fill="#000"></path><path d="m4665.2 268.41c-0.03 0.059 0.78 0.531 2.38 1.41 1.79 0.942 4.15 2.192 7.16 3.782 6.54 3.359 15.83 8.14 27.71 14.23 24.33 12.309 59.21 29.938 102.21 51.688 43.29 21.718 94.73 47.55 151.83 76.21 28.59 14.309 58.6 29.329 89.72 44.891 15.55 7.777 31.39 15.688 47.46 23.711 8.04 4.02 16.13 8.059 24.29 12.129 4.07 2.031 8.16 4.078 12.26 6.121 4.1 2.039 8.13 4.238 12.64 5.648 17.42 6.922 35.6 10.692 53.68 12.09 18.05 1.352 36.05 0.84 53.33-2.218 34.65-5.641 66.58-18.36 94.16-34.84 27.81-16.27 50.75-37.051 69.89-58.153 18.97-21.371 34.14-43.339 46.48-64.199 24.52-41.898 38.44-78.789 47.54-104.22 4.5-12.769 7.69-22.781 9.73-29.601 0.96-3.258 1.71-5.828 2.29-7.77 0.49-1.75 0.71-2.66 0.65-2.679-0.07-0.02-0.42 0.847-1.03 2.57-0.66 1.898-1.54 4.43-2.65 7.641-2.28 6.738-5.69 16.668-10.41 29.328-9.49 25.222-23.78 61.859-48.47 103.34-12.4 20.64-27.6 42.359-46.5 63.449-19.09 20.84-41.82 41.261-69.34 57.242-27.28 16.191-58.82 28.668-92.94 34.168-17.01 2.992-34.7 3.453-52.42 2.121-17.7-1.359-35.64-5.109-52.53-11.82-4.33-1.34-8.4-3.571-12.5-5.598-4.1-2.051-8.19-4.082-12.26-6.121-8.15-4.059-16.24-8.102-24.28-12.102-16.07-8.007-31.91-15.91-47.48-23.66-31.13-15.488-61.17-30.429-89.8-44.668-57.21-28.39-108.77-53.949-152.14-75.461-43.24-21.281-78.29-38.539-102.75-50.578-12.01-5.82-21.41-10.383-28.02-13.582-3.08-1.449-5.5-2.59-7.33-3.449-1.66-0.75-2.53-1.109-2.56-1.051" fill="#33535f"></path><path d="m5085.8 499.35c-0.81 0.019 1.08 12.699-2.91 32.5-3.67 19.867-14.65 45.757-29.92 72.617-15.31 26.883-29.08 51.683-35.52 71.191-3.34 9.68-5.28 17.762-6.16 23.41-0.91 5.649-1.06 8.809-0.83 8.84 0.72 0.129 2.22-12.461 9.55-31.308 7-18.993 20.95-43.27 36.32-70.25 15.36-27.012 26.2-53.61 29.24-74 1.64-10.133 1.88-18.481 1.46-24.204-0.38-5.707-1.02-8.828-1.23-8.796" fill="#33535f"></path><path d="m4633.1 823.9c0.07 0 0.29-0.793 0.66-2.351 0.39-1.77 0.88-4.063 1.52-6.942 1.3-6.379 3.12-15.339 5.46-26.789 4.63-23.269 11.21-56.98 18.91-98.718 3.83-20.872 8.04-43.731 11.97-68.403 0.94-6.199 1.95-12.418 2.52-19 0-0.957 0.19-1.469 0.03-2.789l-0.13-0.879 0.03 0.801-0.31 0.488 0.45-0.09c1.35-0.308 3-0.429 4.58-0.558 3.21-0.223 6.49-0.313 9.79-0.383 13.23-0.187 26.9 0.109 40.92 0.449 56.04 1.532 117.65 4.453 182.3 7.703 6.2 0.329 12.39 0.649 18.12 0.938l-1.82-1.731c12.62 124.69 23.97 236.72 32.18 317.88 4.26 40.27 7.7 72.86 10.11 95.649 1.26 11.07 2.23 19.75 2.94 25.93 0.35 2.78 0.63 5 0.85 6.71 0.21 1.52 0.36 2.29 0.42 2.28 0.06 0 0.04-0.78-0.04-2.31-0.12-1.72-0.29-3.96-0.48-6.76-0.54-6.18-1.28-14.89-2.23-25.99-2.13-22.829-5.16-55.458-8.91-95.77-7.91-81.188-18.84-193.27-31.01-318l-0.16-1.641-1.65-0.09c-5.74-0.297-11.91-0.617-18.12-0.937-64.67-3.262-126.3-6.071-182.42-7.411-14.04-0.289-27.72-0.531-41.07-0.281-3.34 0.078-6.65 0.18-9.97 0.43-1.69 0.152-3.3 0.25-5.12 0.66-0.58 0.25-0.8 0.082-1.79 0.789l-0.68 0.922-0.09 1.051c0.14 0.379 1.14-0.09 0.05 0.359l-0.01 0.32-0.05 2.051c-0.5 6.258-1.49 12.59-2.4 18.719-3.78 24.629-7.82 47.519-11.47 68.41-7.44 41.578-13.49 75.309-17.72 98.93-2.02 11.488-3.61 20.508-4.74 26.91-0.48 2.91-0.86 5.23-1.15 7.008-0.24 1.59-0.33 2.41-0.27 2.433" fill="#33535f"></path><path d="m4884.7 1208.8c0.19 0.17 2.18-1.66 5.65-5.15 3.5-3.45 8.24-8.76 13.8-15.56 11.14-13.6 24.99-33.77 36.68-58 11.63-24.27 18.74-47.69 22.4-64.88 1.85-8.59 3.03-15.61 3.54-20.49 0.56-4.89 0.75-7.59 0.48-7.63-0.64-0.1-2.34 10.61-6.68 27.49-4.29 16.88-11.72 39.86-23.22 63.84-11.54 23.93-24.85 44.08-35.35 57.99-10.49 13.92-17.78 21.94-17.3 22.39" fill="#33535f"></path><path d="m5095.9 509.48c-0.26 0.059 0.15 2.622 1.11 7.2 0.93 4.59 2.59 11.152 4.9 19.191 4.63 16.07 12.41 37.938 23.54 60.961 11.17 23.008 23.49 42.688 33.24 56.277 4.86 6.813 8.98 12.18 12 15.75 3 3.59 4.76 5.493 4.97 5.332 0.48-0.371-5.62-8.691-14.73-22.609-9.11-13.91-20.94-33.613-32.02-56.43-11.02-22.82-19.14-44.332-24.39-60.101-5.29-15.77-8.03-25.731-8.62-25.571" fill="#33535f"></path><path d="m5421 542.29c0.61 0.211 3.36-7.48 9.05-19.25 5.67-11.777 14.7-27.5 27.18-43.051 12.52-15.508 25.96-27.687 36.26-35.738 10.3-8.07 17.22-12.398 16.89-12.949-0.14-0.231-2 0.629-5.26 2.39-3.28 1.719-7.83 4.571-13.26 8.379-10.85 7.59-24.86 19.7-37.63 35.512-12.72 15.828-21.56 32.109-26.66 44.328-2.56 6.11-4.37 11.16-5.36 14.738-1.02 3.563-1.46 5.563-1.21 5.641" fill="#33535f"></path><path d="m4466.9 25.941c-111.88 3.3789-140.03-0.8008-251.91 2.5703-27.34 0.8203-126.57-4.7226-149.72 9.8399-21.08 13.258-48.02 25.469-53.98 49.66-10.05 40.758 0.33 87.34 37.46 113.74 12.79 9.09 27.99 14.359 43.61 15.941 65.9 6.668 127.3-40.261 193-24.589 17.74 4.238 33.56 14.507 51.21 19.14 25.79 6.778 53.59 0.867 77.55-10.84 23.95-11.722 29.47-13.66 29.47-13.66l116.64 42.238 41.04-204.7-134.37 0.6601" fill="#33535f"></path><path d="m4561.3 278.5-61.33-21.461c-9.39-3.277-14.77-13.129-12.46-22.797l52.4-219.35c2.3-9.6797 11.55-16.02 21.41-14.719l62.65 8.3203c11.34 1.5078 18.92 12.449 16.34 23.59l-53.72 232.49c-2.6 11.262-14.4 17.75-25.29 13.93" fill="#33535f"></path><path d="m4541.5 6.332c-0.67-0.22265-5.43 12.258-12.14 32.777-6.69 20.531-15.24 49.121-23 81.172-7.74 32.059-13.05 61.481-16.05 82.86-1.49 10.699-2.52 19.379-3.01 25.398-0.52 6.031-0.62 9.383-0.26 9.43 0.78 0.101 3.04-13.047 6.97-34.219 3.94-21.16 9.81-50.301 17.51-82.23 7.73-31.899 15.68-60.559 21.44-81.329 5.77-20.75 9.26-33.641 8.54-33.859" fill="#000"></path><path d="m4498.5 206.39c-1.02 0.82 17.47 16.89 46.29 21.918 28.77 5.343 51.71-3.278 51.04-4.407-0.32-1.64-22.77 4.309-50.1-0.82-27.39-4.711-46.37-18.121-47.23-16.691" fill="#000"></path><path d="m4507.6 123.4c-0.44 1.352 22.44 10.043 51.64 17.454 29.19 7.457 53.42 10.769 53.68 9.367 0.28-1.477-23.37-7.098-52.38-14.508-29.01-7.359-52.48-13.742-52.94-12.313" fill="#000"></path><path d="m4537.6 37.781c-0.03 1.6796 24.08-0.6524 50.28 11.16 26.4 11.379 40.94 30.758 42.16 29.598 0.49-0.3594-2.37-5.6875-9.01-12.797-6.6-7.1016-17.36-15.59-31.01-21.652-13.67-6-27.21-8.2109-36.9-8.289-9.73-0.1211-15.6 1.3789-15.52 1.9805" fill="#000"></path><path d="m4919.9 458.73-10.23-68.339-188.05-93.832-23.35 142.49 221.63 19.679" fill="#33535f"></path><path d="m4669.3 494.54 11.82-65.117c1.81-9.961 10.86-16.942 20.96-16.16l229.01 17.75c10.1 0.789 17.96 9.078 18.21 19.187l1.62 64.36c0.29 11.64-9.5 21.011-21.12 20.191l-242.45-16.98c-11.73-0.829-20.15-11.661-18.05-23.231" fill="#33535f"></path><path d="m4940 431.22c0.1-0.707-13.22-3.508-34.92-6.977-21.71-3.472-51.85-7.512-85.32-10.211-33.48-2.672-63.92-3.332-85.92-2.941-11 0.199-19.9 0.558-26.03 1.019-6.14 0.442-9.53 0.871-9.52 1.243 0.02 0.796 13.61 0.968 35.53 1.558s52.16 1.852 85.51 4.5c33.32 2.699 63.43 6.129 85.23 8.621 21.8 2.5 35.32 3.949 35.44 3.188" fill="#000"></path><path d="m4731.9 419.91c-0.98-0.898-14.21 20.262-14.68 50.059-0.78 29.793 11.55 51.492 12.57 50.633 1.6-0.571-7.97-22.204-7.17-50.52 0.39-28.301 10.85-49.531 9.28-50.172" fill="#000"></path><path d="m4816.8 415.8c-1.43-0.231-6.53 24.16-9.33 54.719-2.85 30.55-2.32 55.472-0.87 55.492 1.53 0.047 3.42-24.633 6.25-55 2.78-30.364 5.47-54.981 3.95-55.211" fill="#000"></path><path d="m4907.7 432.31c-1.69 0.242 4.5 24.121-3.21 52.371-7.24 28.379-24.42 46.082-23.06 47.129 0.44 0.441 5.35-3.289 11.45-11.11 6.09-7.758 12.93-19.937 16.83-34.648 3.86-14.699 3.93-28.672 2.46-38.43-1.43-9.812-3.86-15.48-4.47-15.312" fill="#000"></path><path d="m5563.4 1809.4c23-84.02 3.48-196.32 26.23-263.78 22.74-67.47 39.3-142.33 13.58-208.72-11.81 26.14-23.61 52.3-35.42 78.44 14.3-30.78 11.29-68.96-7.65-97.13s-53.15-45.35-87.06-43.73c-67.26 137.17-87.62 296.95-28.35 437.76l47.29-33.23 41.22 17.74 30.16 112.65" fill="#000"></path><path d="m5910.1 1554.5-6.25 79.68-16.2 100.6-25.14 82.41s-5.12 7.8-15.06 0.42c-9.95-7.4 4.2-52.32 4.2-52.32l5.37-34.34s-3.35-27.32-5.59-25.3c-2.23 2.03-13.92 47.92-13.92 47.92l-30.07 98.01s-5.75 10.29-17.64 5.09c-6.59-2.89-9.98-13.3-7.53-28.05s11.62-39.08 13.2-47.43c1.6-8.36 12.4-56.42 12.4-56.42l-45.87 108.31s-10.19 35.74-24.8 28.86c-14.61-6.87-1.66-31.91 0.25-43.13 1.89-11.22 32.09-85.07 32.53-106.52 0.45-21.44-4.08-11.19-4.08-11.19s-12.56 34.12-22.48 61.04c-9.91 26.9-22.11 41.79-34.29 42.51-12.2 0.72 10.77-61.61 10.77-61.61l29.95-87.35-1.97-29.05-22.73 23.51s-4.21 33.54-26.72 45.28c-22.87 11.94-26.22-4.58-26.22-4.58l53.17-125.85c11.55-20.26 75.97-55.15 75.97-55.15l24.77-129.26 134.66 22.54-50.68 151.37" fill="#f8a58d"></path><path d="m5858.3 1596.4c-0.61-0.73-7.59 5-19.41 13-11.61 7.66-29.79 18.15-50.92 14.9-9.3-1.35-17.66-5.45-23.14-11.36l-2.01-2.17-2.22 2.34c-9.75 10.35-19.98 19.18-26.2 25.69-6.49 6.43-9.82 10.89-9.25 11.34 0.44 0.31 4.4-3.09 11.54-8.82 7.06-6.03 17.02-13.44 28.29-24.81l-4.23 0.18c6.22 7.1 15.93 11.97 26.35 13.47 11.53 1.77 22.8-0.36 31.92-4.15 9.18-3.74 16.52-8.75 22.31-13.2 11.5-9.12 17.42-15.89 16.97-16.41" fill="#f68260"></path><path d="m5877.8 1091.6-71.99 402.79 109 47.53 147.09-443.95-184.1-6.37" fill="#f8a58d"></path><path d="m5888 1087.9c-0.36-0.09-2.05 5.7-4.82 16.25s-6.56 25.87-10.99 44.85c-8.9 37.96-20.31 90.61-32.06 148.92-11.73 58.33-21.69 111.25-28.62 149.61-3.21 18.54-5.88 33.87-7.9 45.49-1.74 10.76-2.54 16.73-2.19 16.8s1.83-5.78 4.18-16.42c2.43-11.54 5.65-26.76 9.53-45.17 7.88-39.02 18.43-91.4 30.11-149.29 11.85-57.83 22.56-110.14 30.55-149.14 3.82-18.42 6.97-33.66 9.36-45.19 2.16-10.69 3.2-16.63 2.85-16.71" fill="#f68260"></path></g></g></svg>
